<svg width="1392" height="39" viewBox="0 0 1392 39" fill="none" xmlns="http://www.w3.org/2000/svg">
<rect width="1392" height="39" fill="#EFF6FF"/>
<mask id="mask0_1_17211" style="mask-type:luminance" maskUnits="userSpaceOnUse" x="32" y="8" width="24" height="24">
<path d="M32 8H56V32H32V8Z" fill="white"/>
</mask>
<g mask="url(#mask0_1_17211)">
<path d="M34.2378 17.0347C34.2378 15.9209 35.4754 13.8169 37.0844 13.1981C38.6933 12.5793 41.1686 12.5793 44.5102 12.5793C48.0993 12.5793 51.6885 13.1981 51.6885 13.1981L48.8419 10.3515L50.0795 8L56.7628 14.807L49.9558 21.614L48.7181 19.2625L51.5647 16.4159C51.5647 16.4159 47.9756 15.7971 44.2626 15.7971C41.0448 15.7971 38.5695 15.7971 36.9606 16.4159C35.3517 17.0347 34.2378 20.9952 34.2378 20.9952V17.0347Z" fill="#5856D6"/>
<path d="M54.5347 23.965C54.5347 25.0789 53.2971 27.1828 51.6882 27.8017C50.0793 28.4205 47.604 28.4205 44.2624 28.4205C40.6732 28.4205 37.0841 27.8017 37.0841 27.8017L39.9306 30.6482L38.693 32.9997L32.0098 26.1927L38.8168 19.3857L40.0544 21.7373L37.2078 24.5838C37.2078 24.5838 40.797 25.2026 44.5099 25.2026C47.7277 25.2026 50.203 25.2026 51.8119 24.5838C53.4209 23.965 54.5347 20.0046 54.5347 20.0046V23.965Z" fill="#5856D6"/>
</g>
<mask id="path-5-outside-1_1_17211" maskUnits="userSpaceOnUse" x="65" y="13" width="144" height="14" fill="black">
<rect fill="white" x="65" y="13" width="144" height="14"/>
<path d="M69.672 26V16.172H66.09V13.994H75.684V16.172H72.12V26H69.672ZM76.047 26V17.54L78.171 17.216L78.297 18.08C78.621 17.732 78.945 17.492 79.269 17.36C79.605 17.216 79.953 17.144 80.313 17.144C80.517 17.144 80.733 17.168 80.961 17.216C81.189 17.264 81.423 17.33 81.663 17.414L81.249 19.448C81.009 19.352 80.781 19.28 80.565 19.232C80.361 19.172 80.157 19.142 79.953 19.142C79.617 19.142 79.311 19.22 79.035 19.376C78.771 19.532 78.561 19.712 78.405 19.916V26H76.047ZM87.3569 26L87.2489 25.352C86.9969 25.616 86.6729 25.826 86.2769 25.982C85.8929 26.126 85.4669 26.198 84.9989 26.198C84.6149 26.198 84.2369 26.132 83.8649 26C83.5049 25.88 83.1869 25.706 82.9109 25.478C82.6349 25.238 82.4129 24.95 82.2449 24.614C82.0769 24.266 81.9929 23.876 81.9929 23.444C81.9929 22.808 82.1609 22.298 82.4969 21.914C82.8449 21.518 83.2769 21.212 83.7929 20.996C84.3089 20.78 84.8669 20.63 85.4669 20.546C86.0669 20.462 86.6249 20.402 87.1409 20.366V20.078C87.1409 19.718 87.0329 19.436 86.8169 19.232C86.6129 19.016 86.3009 18.908 85.8809 18.908C85.5449 18.908 85.2389 18.98 84.9629 19.124C84.6989 19.256 84.4649 19.442 84.2609 19.682L82.6589 18.566C82.8869 18.278 83.1449 18.038 83.4329 17.846C83.7329 17.654 84.0329 17.504 84.3329 17.396C84.6449 17.288 84.9509 17.216 85.2509 17.18C85.5509 17.132 85.8269 17.108 86.0789 17.108C86.5829 17.108 87.0449 17.174 87.4649 17.306C87.8849 17.426 88.2449 17.624 88.5449 17.9C88.8569 18.164 89.0969 18.506 89.2649 18.926C89.4329 19.334 89.5169 19.832 89.5169 20.42V26H87.3569ZM87.1589 21.95C86.8229 21.974 86.4809 22.004 86.1329 22.04C85.7969 22.076 85.4909 22.142 85.2149 22.238C84.9389 22.334 84.7109 22.478 84.5309 22.67C84.3629 22.85 84.2789 23.09 84.2789 23.39C84.2789 23.678 84.3869 23.912 84.6029 24.092C84.8189 24.26 85.1369 24.344 85.5569 24.344C85.8569 24.344 86.1449 24.284 86.4209 24.164C86.7089 24.044 86.9549 23.894 87.1589 23.714V21.95ZM91.797 26V17.54L93.921 17.216L94.047 18.008C94.407 17.72 94.821 17.498 95.289 17.342C95.757 17.186 96.225 17.108 96.693 17.108C97.845 17.108 98.679 17.45 99.195 18.134C99.711 18.806 99.969 19.718 99.969 20.87V26H97.611V21.05C97.611 20.714 97.593 20.42 97.557 20.168C97.521 19.904 97.449 19.688 97.341 19.52C97.233 19.34 97.077 19.208 96.873 19.124C96.669 19.028 96.399 18.98 96.063 18.98C95.715 18.98 95.367 19.064 95.019 19.232C94.683 19.4 94.395 19.604 94.155 19.844V26H91.797ZM103.354 23.084C103.558 23.468 103.846 23.792 104.218 24.056C104.59 24.308 105.082 24.434 105.694 24.434C106.642 24.434 107.116 24.152 107.116 23.588C107.116 23.468 107.086 23.354 107.026 23.246C106.978 23.138 106.876 23.036 106.72 22.94C106.564 22.844 106.354 22.754 106.09 22.67C105.826 22.586 105.49 22.502 105.082 22.418C104.626 22.322 104.206 22.208 103.822 22.076C103.45 21.932 103.132 21.758 102.868 21.554C102.604 21.338 102.4 21.086 102.256 20.798C102.112 20.498 102.04 20.138 102.04 19.718C102.04 19.334 102.124 18.986 102.292 18.674C102.46 18.35 102.694 18.074 102.994 17.846C103.306 17.606 103.684 17.426 104.128 17.306C104.572 17.174 105.064 17.108 105.604 17.108C106.588 17.108 107.368 17.27 107.944 17.594C108.52 17.906 108.964 18.29 109.276 18.746L107.62 19.88C107.404 19.592 107.128 19.352 106.792 19.16C106.456 18.968 106.06 18.872 105.604 18.872C105.112 18.872 104.764 18.95 104.56 19.106C104.368 19.25 104.272 19.442 104.272 19.682C104.272 19.958 104.392 20.156 104.632 20.276C104.872 20.396 105.316 20.522 105.964 20.654C106.492 20.762 106.96 20.894 107.368 21.05C107.788 21.194 108.142 21.374 108.43 21.59C108.718 21.806 108.934 22.07 109.078 22.382C109.234 22.682 109.312 23.048 109.312 23.48C109.312 23.948 109.216 24.356 109.024 24.704C108.832 25.04 108.568 25.322 108.232 25.55C107.896 25.766 107.5 25.928 107.044 26.036C106.588 26.144 106.102 26.198 105.586 26.198C104.554 26.198 103.714 26.006 103.066 25.622C102.43 25.226 101.944 24.734 101.608 24.146L103.354 23.084ZM111.492 26V19.124H110.286V17.324H111.492V17.018C111.492 16.442 111.57 15.95 111.726 15.542C111.882 15.134 112.092 14.798 112.356 14.534C112.632 14.258 112.95 14.06 113.31 13.94C113.682 13.808 114.084 13.742 114.516 13.742C115.092 13.742 115.59 13.79 116.01 13.886C116.442 13.97 116.832 14.096 117.18 14.264L116.496 16.064C115.992 15.824 115.458 15.704 114.894 15.704C114.594 15.704 114.342 15.8 114.138 15.992C113.934 16.184 113.832 16.532 113.832 17.036V17.324H115.938L115.65 19.124H113.85V26H111.492ZM118.752 22.22C118.788 22.58 118.866 22.892 118.986 23.156C119.106 23.42 119.256 23.636 119.436 23.804C119.616 23.972 119.814 24.098 120.03 24.182C120.258 24.254 120.492 24.29 120.732 24.29C121.152 24.29 121.53 24.218 121.866 24.074C122.202 23.918 122.55 23.588 122.91 23.084L124.656 24.146C124.152 24.902 123.576 25.436 122.928 25.748C122.292 26.048 121.536 26.198 120.66 26.198C120.084 26.198 119.538 26.108 119.022 25.928C118.506 25.748 118.05 25.472 117.654 25.1C117.27 24.716 116.964 24.242 116.736 23.678C116.508 23.114 116.394 22.442 116.394 21.662C116.394 20.93 116.502 20.282 116.718 19.718C116.946 19.154 117.252 18.68 117.636 18.296C118.02 17.912 118.464 17.618 118.968 17.414C119.484 17.21 120.03 17.108 120.606 17.108C121.818 17.108 122.79 17.534 123.522 18.386C124.266 19.226 124.65 20.504 124.674 22.22H118.752ZM122.28 20.618C122.256 20.33 122.19 20.078 122.082 19.862C121.986 19.646 121.86 19.466 121.704 19.322C121.548 19.178 121.374 19.07 121.182 18.998C120.99 18.926 120.798 18.89 120.606 18.89C120.198 18.89 119.814 19.046 119.454 19.358C119.094 19.658 118.878 20.078 118.806 20.618H122.28ZM126.391 26V17.54L128.515 17.216L128.641 18.08C128.965 17.732 129.289 17.492 129.613 17.36C129.949 17.216 130.297 17.144 130.657 17.144C130.861 17.144 131.077 17.168 131.305 17.216C131.533 17.264 131.767 17.33 132.007 17.414L131.593 19.448C131.353 19.352 131.125 19.28 130.909 19.232C130.705 19.172 130.501 19.142 130.297 19.142C129.961 19.142 129.655 19.22 129.379 19.376C129.115 19.532 128.905 19.712 128.749 19.916V26H126.391ZM138.24 26L135.504 13.994H137.934L139.41 21.122L141.75 13.994H143.244L145.584 21.122L147.096 13.994H149.508L146.754 26H145.224L142.488 17.954L139.77 26H138.24ZM154.061 26.198C153.329 26.198 152.687 26.066 152.135 25.802C151.595 25.538 151.139 25.19 150.767 24.758C150.407 24.326 150.137 23.84 149.957 23.3C149.777 22.748 149.687 22.19 149.687 21.626C149.687 21.062 149.777 20.51 149.957 19.97C150.137 19.43 150.407 18.95 150.767 18.53C151.139 18.098 151.595 17.756 152.135 17.504C152.687 17.24 153.329 17.108 154.061 17.108C154.793 17.108 155.429 17.24 155.969 17.504C156.521 17.756 156.977 18.098 157.337 18.53C157.709 18.95 157.985 19.43 158.165 19.97C158.345 20.51 158.435 21.062 158.435 21.626C158.435 22.19 158.345 22.748 158.165 23.3C157.985 23.84 157.709 24.326 157.337 24.758C156.977 25.19 156.521 25.538 155.969 25.802C155.429 26.066 154.793 26.198 154.061 26.198ZM151.991 21.626C151.991 21.998 152.033 22.346 152.117 22.67C152.213 22.982 152.345 23.258 152.513 23.498C152.693 23.738 152.909 23.93 153.161 24.074C153.425 24.206 153.725 24.272 154.061 24.272C154.397 24.272 154.691 24.206 154.943 24.074C155.207 23.93 155.423 23.738 155.591 23.498C155.771 23.258 155.903 22.982 155.987 22.67C156.083 22.346 156.131 21.998 156.131 21.626C156.131 21.266 156.083 20.924 155.987 20.6C155.903 20.276 155.771 20 155.591 19.772C155.423 19.532 155.207 19.346 154.943 19.214C154.691 19.07 154.397 18.998 154.061 18.998C153.725 18.998 153.425 19.07 153.161 19.214C152.909 19.346 152.693 19.532 152.513 19.772C152.345 20 152.213 20.276 152.117 20.6C152.033 20.924 151.991 21.266 151.991 21.626ZM160.229 26V17.54L162.353 17.216L162.479 18.08C162.803 17.732 163.127 17.492 163.451 17.36C163.787 17.216 164.135 17.144 164.495 17.144C164.699 17.144 164.915 17.168 165.143 17.216C165.371 17.264 165.605 17.33 165.845 17.414L165.431 19.448C165.191 19.352 164.963 19.28 164.747 19.232C164.543 19.172 164.339 19.142 164.135 19.142C163.799 19.142 163.493 19.22 163.217 19.376C162.953 19.532 162.743 19.712 162.587 19.916V26H160.229ZM166.908 26V14.102L169.266 13.742V19.772L171.984 17.324H174.81L171.822 20.006L175.242 26H172.596L170.112 21.518L169.266 22.31V26H166.908ZM176.742 26V19.124H175.536V17.324H176.76V17.054C176.76 16.394 176.898 15.848 177.174 15.416C177.462 14.984 177.822 14.648 178.254 14.408C178.698 14.168 179.19 14 179.73 13.904C180.27 13.808 180.798 13.76 181.314 13.76C181.77 13.76 182.262 13.784 182.79 13.832C183.318 13.88 183.804 13.946 184.248 14.03V26H181.908V15.83C181.764 15.806 181.602 15.794 181.422 15.794C181.242 15.782 181.086 15.776 180.954 15.776C180.426 15.776 179.982 15.878 179.622 16.082C179.262 16.274 179.082 16.616 179.082 17.108V17.324H181.026L180.738 19.124H179.1V26H176.742ZM190.43 26.198C189.698 26.198 189.056 26.066 188.504 25.802C187.964 25.538 187.508 25.19 187.136 24.758C186.776 24.326 186.506 23.84 186.326 23.3C186.146 22.748 186.056 22.19 186.056 21.626C186.056 21.062 186.146 20.51 186.326 19.97C186.506 19.43 186.776 18.95 187.136 18.53C187.508 18.098 187.964 17.756 188.504 17.504C189.056 17.24 189.698 17.108 190.43 17.108C191.162 17.108 191.798 17.24 192.338 17.504C192.89 17.756 193.346 18.098 193.706 18.53C194.078 18.95 194.354 19.43 194.534 19.97C194.714 20.51 194.804 21.062 194.804 21.626C194.804 22.19 194.714 22.748 194.534 23.3C194.354 23.84 194.078 24.326 193.706 24.758C193.346 25.19 192.89 25.538 192.338 25.802C191.798 26.066 191.162 26.198 190.43 26.198ZM188.36 21.626C188.36 21.998 188.402 22.346 188.486 22.67C188.582 22.982 188.714 23.258 188.882 23.498C189.062 23.738 189.278 23.93 189.53 24.074C189.794 24.206 190.094 24.272 190.43 24.272C190.766 24.272 191.06 24.206 191.312 24.074C191.576 23.93 191.792 23.738 191.96 23.498C192.14 23.258 192.272 22.982 192.356 22.67C192.452 22.346 192.5 21.998 192.5 21.626C192.5 21.266 192.452 20.924 192.356 20.6C192.272 20.276 192.14 20 191.96 19.772C191.792 19.532 191.576 19.346 191.312 19.214C191.06 19.07 190.766 18.998 190.43 18.998C190.094 18.998 189.794 19.07 189.53 19.214C189.278 19.346 189.062 19.532 188.882 19.772C188.714 20 188.582 20.276 188.486 20.6C188.402 20.924 188.36 21.266 188.36 21.626ZM198.172 26L195.076 17.324H197.524L199.09 22.544L200.8 17.324H202.24L203.968 22.544L205.534 17.324H207.982L204.886 26H203.176L201.52 20.978L199.882 26H198.172Z"/>
</mask>
<path d="M69.672 26V16.172H66.09V13.994H75.684V16.172H72.12V26H69.672ZM76.047 26V17.54L78.171 17.216L78.297 18.08C78.621 17.732 78.945 17.492 79.269 17.36C79.605 17.216 79.953 17.144 80.313 17.144C80.517 17.144 80.733 17.168 80.961 17.216C81.189 17.264 81.423 17.33 81.663 17.414L81.249 19.448C81.009 19.352 80.781 19.28 80.565 19.232C80.361 19.172 80.157 19.142 79.953 19.142C79.617 19.142 79.311 19.22 79.035 19.376C78.771 19.532 78.561 19.712 78.405 19.916V26H76.047ZM87.3569 26L87.2489 25.352C86.9969 25.616 86.6729 25.826 86.2769 25.982C85.8929 26.126 85.4669 26.198 84.9989 26.198C84.6149 26.198 84.2369 26.132 83.8649 26C83.5049 25.88 83.1869 25.706 82.9109 25.478C82.6349 25.238 82.4129 24.95 82.2449 24.614C82.0769 24.266 81.9929 23.876 81.9929 23.444C81.9929 22.808 82.1609 22.298 82.4969 21.914C82.8449 21.518 83.2769 21.212 83.7929 20.996C84.3089 20.78 84.8669 20.63 85.4669 20.546C86.0669 20.462 86.6249 20.402 87.1409 20.366V20.078C87.1409 19.718 87.0329 19.436 86.8169 19.232C86.6129 19.016 86.3009 18.908 85.8809 18.908C85.5449 18.908 85.2389 18.98 84.9629 19.124C84.6989 19.256 84.4649 19.442 84.2609 19.682L82.6589 18.566C82.8869 18.278 83.1449 18.038 83.4329 17.846C83.7329 17.654 84.0329 17.504 84.3329 17.396C84.6449 17.288 84.9509 17.216 85.2509 17.18C85.5509 17.132 85.8269 17.108 86.0789 17.108C86.5829 17.108 87.0449 17.174 87.4649 17.306C87.8849 17.426 88.2449 17.624 88.5449 17.9C88.8569 18.164 89.0969 18.506 89.2649 18.926C89.4329 19.334 89.5169 19.832 89.5169 20.42V26H87.3569ZM87.1589 21.95C86.8229 21.974 86.4809 22.004 86.1329 22.04C85.7969 22.076 85.4909 22.142 85.2149 22.238C84.9389 22.334 84.7109 22.478 84.5309 22.67C84.3629 22.85 84.2789 23.09 84.2789 23.39C84.2789 23.678 84.3869 23.912 84.6029 24.092C84.8189 24.26 85.1369 24.344 85.5569 24.344C85.8569 24.344 86.1449 24.284 86.4209 24.164C86.7089 24.044 86.9549 23.894 87.1589 23.714V21.95ZM91.797 26V17.54L93.921 17.216L94.047 18.008C94.407 17.72 94.821 17.498 95.289 17.342C95.757 17.186 96.225 17.108 96.693 17.108C97.845 17.108 98.679 17.45 99.195 18.134C99.711 18.806 99.969 19.718 99.969 20.87V26H97.611V21.05C97.611 20.714 97.593 20.42 97.557 20.168C97.521 19.904 97.449 19.688 97.341 19.52C97.233 19.34 97.077 19.208 96.873 19.124C96.669 19.028 96.399 18.98 96.063 18.98C95.715 18.98 95.367 19.064 95.019 19.232C94.683 19.4 94.395 19.604 94.155 19.844V26H91.797ZM103.354 23.084C103.558 23.468 103.846 23.792 104.218 24.056C104.59 24.308 105.082 24.434 105.694 24.434C106.642 24.434 107.116 24.152 107.116 23.588C107.116 23.468 107.086 23.354 107.026 23.246C106.978 23.138 106.876 23.036 106.72 22.94C106.564 22.844 106.354 22.754 106.09 22.67C105.826 22.586 105.49 22.502 105.082 22.418C104.626 22.322 104.206 22.208 103.822 22.076C103.45 21.932 103.132 21.758 102.868 21.554C102.604 21.338 102.4 21.086 102.256 20.798C102.112 20.498 102.04 20.138 102.04 19.718C102.04 19.334 102.124 18.986 102.292 18.674C102.46 18.35 102.694 18.074 102.994 17.846C103.306 17.606 103.684 17.426 104.128 17.306C104.572 17.174 105.064 17.108 105.604 17.108C106.588 17.108 107.368 17.27 107.944 17.594C108.52 17.906 108.964 18.29 109.276 18.746L107.62 19.88C107.404 19.592 107.128 19.352 106.792 19.16C106.456 18.968 106.06 18.872 105.604 18.872C105.112 18.872 104.764 18.95 104.56 19.106C104.368 19.25 104.272 19.442 104.272 19.682C104.272 19.958 104.392 20.156 104.632 20.276C104.872 20.396 105.316 20.522 105.964 20.654C106.492 20.762 106.96 20.894 107.368 21.05C107.788 21.194 108.142 21.374 108.43 21.59C108.718 21.806 108.934 22.07 109.078 22.382C109.234 22.682 109.312 23.048 109.312 23.48C109.312 23.948 109.216 24.356 109.024 24.704C108.832 25.04 108.568 25.322 108.232 25.55C107.896 25.766 107.5 25.928 107.044 26.036C106.588 26.144 106.102 26.198 105.586 26.198C104.554 26.198 103.714 26.006 103.066 25.622C102.43 25.226 101.944 24.734 101.608 24.146L103.354 23.084ZM111.492 26V19.124H110.286V17.324H111.492V17.018C111.492 16.442 111.57 15.95 111.726 15.542C111.882 15.134 112.092 14.798 112.356 14.534C112.632 14.258 112.95 14.06 113.31 13.94C113.682 13.808 114.084 13.742 114.516 13.742C115.092 13.742 115.59 13.79 116.01 13.886C116.442 13.97 116.832 14.096 117.18 14.264L116.496 16.064C115.992 15.824 115.458 15.704 114.894 15.704C114.594 15.704 114.342 15.8 114.138 15.992C113.934 16.184 113.832 16.532 113.832 17.036V17.324H115.938L115.65 19.124H113.85V26H111.492ZM118.752 22.22C118.788 22.58 118.866 22.892 118.986 23.156C119.106 23.42 119.256 23.636 119.436 23.804C119.616 23.972 119.814 24.098 120.03 24.182C120.258 24.254 120.492 24.29 120.732 24.29C121.152 24.29 121.53 24.218 121.866 24.074C122.202 23.918 122.55 23.588 122.91 23.084L124.656 24.146C124.152 24.902 123.576 25.436 122.928 25.748C122.292 26.048 121.536 26.198 120.66 26.198C120.084 26.198 119.538 26.108 119.022 25.928C118.506 25.748 118.05 25.472 117.654 25.1C117.27 24.716 116.964 24.242 116.736 23.678C116.508 23.114 116.394 22.442 116.394 21.662C116.394 20.93 116.502 20.282 116.718 19.718C116.946 19.154 117.252 18.68 117.636 18.296C118.02 17.912 118.464 17.618 118.968 17.414C119.484 17.21 120.03 17.108 120.606 17.108C121.818 17.108 122.79 17.534 123.522 18.386C124.266 19.226 124.65 20.504 124.674 22.22H118.752ZM122.28 20.618C122.256 20.33 122.19 20.078 122.082 19.862C121.986 19.646 121.86 19.466 121.704 19.322C121.548 19.178 121.374 19.07 121.182 18.998C120.99 18.926 120.798 18.89 120.606 18.89C120.198 18.89 119.814 19.046 119.454 19.358C119.094 19.658 118.878 20.078 118.806 20.618H122.28ZM126.391 26V17.54L128.515 17.216L128.641 18.08C128.965 17.732 129.289 17.492 129.613 17.36C129.949 17.216 130.297 17.144 130.657 17.144C130.861 17.144 131.077 17.168 131.305 17.216C131.533 17.264 131.767 17.33 132.007 17.414L131.593 19.448C131.353 19.352 131.125 19.28 130.909 19.232C130.705 19.172 130.501 19.142 130.297 19.142C129.961 19.142 129.655 19.22 129.379 19.376C129.115 19.532 128.905 19.712 128.749 19.916V26H126.391ZM138.24 26L135.504 13.994H137.934L139.41 21.122L141.75 13.994H143.244L145.584 21.122L147.096 13.994H149.508L146.754 26H145.224L142.488 17.954L139.77 26H138.24ZM154.061 26.198C153.329 26.198 152.687 26.066 152.135 25.802C151.595 25.538 151.139 25.19 150.767 24.758C150.407 24.326 150.137 23.84 149.957 23.3C149.777 22.748 149.687 22.19 149.687 21.626C149.687 21.062 149.777 20.51 149.957 19.97C150.137 19.43 150.407 18.95 150.767 18.53C151.139 18.098 151.595 17.756 152.135 17.504C152.687 17.24 153.329 17.108 154.061 17.108C154.793 17.108 155.429 17.24 155.969 17.504C156.521 17.756 156.977 18.098 157.337 18.53C157.709 18.95 157.985 19.43 158.165 19.97C158.345 20.51 158.435 21.062 158.435 21.626C158.435 22.19 158.345 22.748 158.165 23.3C157.985 23.84 157.709 24.326 157.337 24.758C156.977 25.19 156.521 25.538 155.969 25.802C155.429 26.066 154.793 26.198 154.061 26.198ZM151.991 21.626C151.991 21.998 152.033 22.346 152.117 22.67C152.213 22.982 152.345 23.258 152.513 23.498C152.693 23.738 152.909 23.93 153.161 24.074C153.425 24.206 153.725 24.272 154.061 24.272C154.397 24.272 154.691 24.206 154.943 24.074C155.207 23.93 155.423 23.738 155.591 23.498C155.771 23.258 155.903 22.982 155.987 22.67C156.083 22.346 156.131 21.998 156.131 21.626C156.131 21.266 156.083 20.924 155.987 20.6C155.903 20.276 155.771 20 155.591 19.772C155.423 19.532 155.207 19.346 154.943 19.214C154.691 19.07 154.397 18.998 154.061 18.998C153.725 18.998 153.425 19.07 153.161 19.214C152.909 19.346 152.693 19.532 152.513 19.772C152.345 20 152.213 20.276 152.117 20.6C152.033 20.924 151.991 21.266 151.991 21.626ZM160.229 26V17.54L162.353 17.216L162.479 18.08C162.803 17.732 163.127 17.492 163.451 17.36C163.787 17.216 164.135 17.144 164.495 17.144C164.699 17.144 164.915 17.168 165.143 17.216C165.371 17.264 165.605 17.33 165.845 17.414L165.431 19.448C165.191 19.352 164.963 19.28 164.747 19.232C164.543 19.172 164.339 19.142 164.135 19.142C163.799 19.142 163.493 19.22 163.217 19.376C162.953 19.532 162.743 19.712 162.587 19.916V26H160.229ZM166.908 26V14.102L169.266 13.742V19.772L171.984 17.324H174.81L171.822 20.006L175.242 26H172.596L170.112 21.518L169.266 22.31V26H166.908ZM176.742 26V19.124H175.536V17.324H176.76V17.054C176.76 16.394 176.898 15.848 177.174 15.416C177.462 14.984 177.822 14.648 178.254 14.408C178.698 14.168 179.19 14 179.73 13.904C180.27 13.808 180.798 13.76 181.314 13.76C181.77 13.76 182.262 13.784 182.79 13.832C183.318 13.88 183.804 13.946 184.248 14.03V26H181.908V15.83C181.764 15.806 181.602 15.794 181.422 15.794C181.242 15.782 181.086 15.776 180.954 15.776C180.426 15.776 179.982 15.878 179.622 16.082C179.262 16.274 179.082 16.616 179.082 17.108V17.324H181.026L180.738 19.124H179.1V26H176.742ZM190.43 26.198C189.698 26.198 189.056 26.066 188.504 25.802C187.964 25.538 187.508 25.19 187.136 24.758C186.776 24.326 186.506 23.84 186.326 23.3C186.146 22.748 186.056 22.19 186.056 21.626C186.056 21.062 186.146 20.51 186.326 19.97C186.506 19.43 186.776 18.95 187.136 18.53C187.508 18.098 187.964 17.756 188.504 17.504C189.056 17.24 189.698 17.108 190.43 17.108C191.162 17.108 191.798 17.24 192.338 17.504C192.89 17.756 193.346 18.098 193.706 18.53C194.078 18.95 194.354 19.43 194.534 19.97C194.714 20.51 194.804 21.062 194.804 21.626C194.804 22.19 194.714 22.748 194.534 23.3C194.354 23.84 194.078 24.326 193.706 24.758C193.346 25.19 192.89 25.538 192.338 25.802C191.798 26.066 191.162 26.198 190.43 26.198ZM188.36 21.626C188.36 21.998 188.402 22.346 188.486 22.67C188.582 22.982 188.714 23.258 188.882 23.498C189.062 23.738 189.278 23.93 189.53 24.074C189.794 24.206 190.094 24.272 190.43 24.272C190.766 24.272 191.06 24.206 191.312 24.074C191.576 23.93 191.792 23.738 191.96 23.498C192.14 23.258 192.272 22.982 192.356 22.67C192.452 22.346 192.5 21.998 192.5 21.626C192.5 21.266 192.452 20.924 192.356 20.6C192.272 20.276 192.14 20 191.96 19.772C191.792 19.532 191.576 19.346 191.312 19.214C191.06 19.07 190.766 18.998 190.43 18.998C190.094 18.998 189.794 19.07 189.53 19.214C189.278 19.346 189.062 19.532 188.882 19.772C188.714 20 188.582 20.276 188.486 20.6C188.402 20.924 188.36 21.266 188.36 21.626ZM198.172 26L195.076 17.324H197.524L199.09 22.544L200.8 17.324H202.24L203.968 22.544L205.534 17.324H207.982L204.886 26H203.176L201.52 20.978L199.882 26H198.172Z" fill="#101928"/>
<path d="M69.672 26H69.427V26.245H69.672V26ZM69.672 16.172H69.917V15.927H69.672V16.172ZM66.09 16.172H65.845V16.417H66.09V16.172ZM66.09 13.994V13.749H65.845V13.994H66.09ZM75.684 13.994H75.929V13.749H75.684V13.994ZM75.684 16.172V16.417H75.929V16.172H75.684ZM72.12 16.172V15.927H71.875V16.172H72.12ZM72.12 26V26.245H72.365V26H72.12ZM69.672 26H69.917V16.172H69.672H69.427V26H69.672ZM69.672 16.172V15.927H66.09V16.172V16.417H69.672V16.172ZM66.09 16.172H66.335V13.994H66.09H65.845V16.172H66.09ZM66.09 13.994V14.239H75.684V13.994V13.749H66.09V13.994ZM75.684 13.994H75.439V16.172H75.684H75.929V13.994H75.684ZM75.684 16.172V15.927H72.12V16.172V16.417H75.684V16.172ZM72.12 16.172H71.875V26H72.12H72.365V16.172H72.12ZM72.12 26V25.755H69.672V26V26.245H72.12V26ZM76.047 26H75.802V26.245H76.047V26ZM76.047 17.54L76.01 17.2978L75.802 17.3295V17.54H76.047ZM78.171 17.216L78.4134 17.1806L78.3778 16.9366L78.134 16.9738L78.171 17.216ZM78.297 18.08L78.0545 18.1154L78.1282 18.6208L78.4763 18.2469L78.297 18.08ZM79.269 17.36L79.3614 17.5869L79.3655 17.5852L79.269 17.36ZM80.961 17.216L81.0114 16.9763L80.961 17.216ZM81.663 17.414L81.903 17.4629L81.9457 17.2534L81.7439 17.1828L81.663 17.414ZM81.249 19.448L81.158 19.6755L81.4305 19.7845L81.489 19.4969L81.249 19.448ZM80.565 19.232L80.4958 19.467L80.5037 19.4694L80.5118 19.4712L80.565 19.232ZM79.035 19.376L78.9144 19.1627L78.9103 19.1651L79.035 19.376ZM78.405 19.916L78.2103 19.7672L78.16 19.8331V19.916H78.405ZM78.405 26V26.245H78.65V26H78.405ZM76.047 26H76.292V17.54H76.047H75.802V26H76.047ZM76.047 17.54L76.0839 17.7822L78.2079 17.4582L78.171 17.216L78.134 16.9738L76.01 17.2978L76.047 17.54ZM78.171 17.216L77.9285 17.2514L78.0545 18.1154L78.297 18.08L78.5394 18.0446L78.4134 17.1806L78.171 17.216ZM78.297 18.08L78.4763 18.2469C78.7842 17.9162 79.08 17.7015 79.3614 17.5869L79.269 17.36L79.1765 17.1331C78.8099 17.2825 78.4577 17.5478 78.1176 17.9131L78.297 18.08ZM79.269 17.36L79.3655 17.5852C79.6715 17.4541 79.9867 17.389 80.313 17.389V17.144V16.899C79.9193 16.899 79.5385 16.9779 79.1724 17.1348L79.269 17.36ZM80.313 17.144V17.389C80.4978 17.389 80.6968 17.4108 80.9105 17.4557L80.961 17.216L81.0114 16.9763C80.7691 16.9252 80.5361 16.899 80.313 16.899V17.144ZM80.961 17.216L80.9105 17.4557C81.1273 17.5014 81.3511 17.5644 81.582 17.6452L81.663 17.414L81.7439 17.1828C81.4948 17.0956 81.2506 17.0266 81.0114 16.9763L80.961 17.216ZM81.663 17.414L81.4229 17.3651L81.0089 19.3991L81.249 19.448L81.489 19.4969L81.903 17.4629L81.663 17.414ZM81.249 19.448L81.3399 19.2205C81.0897 19.1204 80.8489 19.0441 80.6181 18.9928L80.565 19.232L80.5118 19.4712C80.713 19.5159 80.9283 19.5836 81.158 19.6755L81.249 19.448ZM80.565 19.232L80.6341 18.997C80.4086 18.9306 80.1813 18.897 79.953 18.897V19.142V19.387C80.1326 19.387 80.3133 19.4134 80.4958 19.467L80.565 19.232ZM79.953 19.142V18.897C79.5773 18.897 79.2294 18.9847 78.9144 19.1627L79.035 19.376L79.1555 19.5893C79.3925 19.4553 79.6566 19.387 79.953 19.387V19.142ZM79.035 19.376L78.9103 19.1651C78.6244 19.334 78.3888 19.5338 78.2103 19.7672L78.405 19.916L78.5996 20.0648C78.7331 19.8902 78.9175 19.73 79.1596 19.5869L79.035 19.376ZM78.405 19.916H78.16V26H78.405H78.65V19.916H78.405ZM78.405 26V25.755H76.047V26V26.245H78.405V26ZM87.3569 26L87.1152 26.0403L87.1493 26.245H87.3569V26ZM87.2489 25.352L87.4905 25.3117L87.41 24.8284L87.0716 25.1828L87.2489 25.352ZM86.2769 25.982L86.3629 26.2114L86.3667 26.2099L86.2769 25.982ZM83.8649 26L83.9468 25.7691L83.9423 25.7676L83.8649 26ZM82.9109 25.478L82.75 25.6629L82.7548 25.6669L82.9109 25.478ZM82.2449 24.614L82.0242 24.7205L82.0257 24.7236L82.2449 24.614ZM82.4969 21.914L82.3128 21.7523L82.3125 21.7527L82.4969 21.914ZM83.7929 20.996L83.6983 20.77L83.7929 20.996ZM85.4669 20.546L85.5008 20.7886L85.4669 20.546ZM87.1409 20.366L87.1579 20.6104L87.3859 20.5945V20.366H87.1409ZM86.8169 19.232L86.6385 19.4005L86.6486 19.4101L86.8169 19.232ZM84.9629 19.124L85.0724 19.3432L85.0762 19.3412L84.9629 19.124ZM84.2609 19.682L84.1208 19.883L84.3034 20.0102L84.4475 19.8407L84.2609 19.682ZM82.6589 18.566L82.4668 18.4139L82.3051 18.6181L82.5188 18.767L82.6589 18.566ZM83.4329 17.846L83.3008 17.6396L83.297 17.6421L83.4329 17.846ZM84.3329 17.396L84.2527 17.1645L84.2499 17.1655L84.3329 17.396ZM85.2509 17.18L85.2801 17.4234L85.2896 17.4219L85.2509 17.18ZM87.4649 17.306L87.3914 17.5398L87.3976 17.5416L87.4649 17.306ZM88.5449 17.9L88.3788 18.0805L88.3866 18.087L88.5449 17.9ZM89.2649 18.926L89.0374 19.017L89.0383 19.0193L89.2649 18.926ZM89.5169 26V26.245H89.7619V26H89.5169ZM87.1589 21.95H87.4039V21.6869L87.1414 21.7056L87.1589 21.95ZM86.1329 22.04L86.1076 21.7963L86.1068 21.7964L86.1329 22.04ZM84.5309 22.67L84.3521 22.5024L84.3518 22.5028L84.5309 22.67ZM84.6029 24.092L84.4459 24.2803L84.4524 24.2854L84.6029 24.092ZM86.4209 24.164L86.3266 23.9378L86.3232 23.9393L86.4209 24.164ZM87.1589 23.714L87.321 23.8977L87.4039 23.8246V23.714H87.1589ZM87.3569 26L87.5985 25.9597L87.4905 25.3117L87.2489 25.352L87.0072 25.3923L87.1152 26.0403L87.3569 26ZM87.2489 25.352L87.0716 25.1828C86.8479 25.4172 86.5555 25.6089 86.1871 25.754L86.2769 25.982L86.3667 26.2099C86.7903 26.0431 87.1458 25.8148 87.4261 25.5212L87.2489 25.352ZM86.2769 25.982L86.1908 25.7526C85.8379 25.8849 85.4416 25.953 84.9989 25.953V26.198V26.443C85.4921 26.443 85.9478 26.3671 86.3629 26.2114L86.2769 25.982ZM84.9989 26.198V25.953C84.6436 25.953 84.2932 25.892 83.9468 25.7691L83.8649 26L83.7829 26.2309C84.1805 26.372 84.5862 26.443 84.9989 26.443V26.198ZM83.8649 26L83.9423 25.7676C83.6092 25.6565 83.3182 25.4967 83.0669 25.2891L82.9109 25.478L82.7548 25.6669C83.0555 25.9152 83.4005 26.1035 83.7874 26.2324L83.8649 26ZM82.9109 25.478L83.0716 25.2931C82.8205 25.0747 82.618 24.8125 82.464 24.5044L82.2449 24.614L82.0257 24.7236C82.2077 25.0875 82.4492 25.4013 82.7501 25.6629L82.9109 25.478ZM82.2449 24.614L82.4655 24.5075C82.3153 24.1964 82.2379 23.8435 82.2379 23.444H81.9929H81.7479C81.7479 23.9085 81.8384 24.3356 82.0242 24.7205L82.2449 24.614ZM81.9929 23.444H82.2379C82.2379 22.8522 82.3933 22.4044 82.6812 22.0753L82.4969 21.914L82.3125 21.7527C81.9285 22.1916 81.7479 22.7638 81.7479 23.444H81.9929ZM82.4969 21.914L82.6809 22.0757C83.0029 21.7094 83.4036 21.4245 83.8875 21.222L83.7929 20.996L83.6983 20.77C83.1501 20.9995 82.6869 21.3266 82.3128 21.7523L82.4969 21.914ZM83.7929 20.996L83.8875 21.222C84.3825 21.0148 84.92 20.87 85.5008 20.7886L85.4669 20.546L85.4329 20.3034C84.8138 20.39 84.2352 20.5452 83.6983 20.77L83.7929 20.996ZM85.4669 20.546L85.5008 20.7886C86.0961 20.7053 86.6484 20.646 87.1579 20.6104L87.1409 20.366L87.1238 20.1216C86.6013 20.158 86.0376 20.2187 85.4329 20.3034L85.4669 20.546ZM87.1409 20.366H87.3859V20.078H87.1409H86.8959V20.366H87.1409ZM87.1409 20.078H87.3859C87.3859 19.666 87.2602 19.3138 86.9851 19.0539L86.8169 19.232L86.6486 19.4101C86.8055 19.5582 86.8959 19.77 86.8959 20.078H87.1409ZM86.8169 19.232L86.995 19.0638C86.7282 18.7813 86.3398 18.663 85.8809 18.663V18.908V19.153C86.2619 19.153 86.4975 19.2506 86.6387 19.4002L86.8169 19.232ZM85.8809 18.908V18.663C85.5086 18.663 85.1633 18.7431 84.8495 18.9068L84.9629 19.124L85.0762 19.3412C85.3145 19.2169 85.5811 19.153 85.8809 19.153V18.908ZM84.9629 19.124L84.8533 18.9049C84.5578 19.0526 84.2981 19.2599 84.0742 19.5233L84.2609 19.682L84.4475 19.8407C84.6316 19.6241 84.8399 19.4594 85.0724 19.3431L84.9629 19.124ZM84.2609 19.682L84.4009 19.481L82.7989 18.365L82.6589 18.566L82.5188 18.767L84.1208 19.883L84.2609 19.682ZM82.6589 18.566L82.851 18.7181C83.064 18.4489 83.3034 18.2268 83.5688 18.0499L83.4329 17.846L83.297 17.6421C82.9864 17.8492 82.7097 18.1071 82.4668 18.4139L82.6589 18.566ZM83.4329 17.846L83.5649 18.0524C83.8513 17.8691 84.1349 17.7276 84.4158 17.6265L84.3329 17.396L84.2499 17.1655C83.9308 17.2804 83.6144 17.4389 83.3008 17.6396L83.4329 17.846ZM84.3329 17.396L84.413 17.6275C84.71 17.5247 84.9989 17.457 85.2801 17.4233L85.2509 17.18L85.2217 16.9367C84.9028 16.975 84.5797 17.0513 84.2527 17.1645L84.3329 17.396ZM85.2509 17.18L85.2896 17.4219C85.5793 17.3756 85.8421 17.353 86.0789 17.353V17.108V16.863C85.8116 16.863 85.5224 16.8884 85.2122 16.9381L85.2509 17.18ZM86.0789 17.108V17.353C86.5615 17.353 86.9983 17.4162 87.3914 17.5397L87.4649 17.306L87.5383 17.0723C87.0914 16.9318 86.6042 16.863 86.0789 16.863V17.108ZM87.4649 17.306L87.3976 17.5416C87.7835 17.6519 88.1091 17.832 88.379 18.0803L88.5449 17.9L88.7107 17.7197C88.3806 17.416 87.9862 17.2001 87.5322 17.0704L87.4649 17.306ZM88.5449 17.9L88.3866 18.087C88.6649 18.3225 88.8826 18.6301 89.0374 19.017L89.2649 18.926L89.4923 18.835C89.3111 18.3819 89.0489 18.0055 88.7031 17.713L88.5449 17.9ZM89.2649 18.926L89.0383 19.0193C89.1908 19.3896 89.2719 19.8539 89.2719 20.42H89.5169H89.7619C89.7619 19.8101 89.6749 19.2784 89.4914 18.8327L89.2649 18.926ZM89.5169 20.42H89.2719V26H89.5169H89.7619V20.42H89.5169ZM89.5169 26V25.755H87.3569V26V26.245H89.5169V26ZM87.1589 21.95L87.1414 21.7056C86.8027 21.7298 86.4581 21.76 86.1076 21.7963L86.1329 22.04L86.1581 22.2837C86.5036 22.248 86.843 22.2182 87.1763 22.1944L87.1589 21.95ZM86.1329 22.04L86.1068 21.7964C85.755 21.8341 85.4305 21.9036 85.1344 22.0066L85.2149 22.238L85.2953 22.4694C85.5513 22.3804 85.8387 22.3179 86.159 22.2836L86.1329 22.04ZM85.2149 22.238L85.1344 22.0066C84.8251 22.1142 84.5621 22.2784 84.3521 22.5024L84.5309 22.67L84.7096 22.8376C84.8596 22.6776 85.0526 22.5538 85.2953 22.4694L85.2149 22.238ZM84.5309 22.67L84.3518 22.5028C84.1326 22.7377 84.0339 23.0422 84.0339 23.39H84.2789H84.5239C84.5239 23.1378 84.5931 22.9623 84.71 22.8372L84.5309 22.67ZM84.2789 23.39H84.0339C84.0339 23.7487 84.1726 24.0524 84.446 24.2802L84.6029 24.092L84.7597 23.9038C84.6011 23.7716 84.5239 23.6073 84.5239 23.39H84.2789ZM84.6029 24.092L84.4524 24.2854C84.7291 24.5005 85.1099 24.589 85.5569 24.589V24.344V24.099C85.1638 24.099 84.9087 24.0195 84.7533 23.8986L84.6029 24.092ZM85.5569 24.344V24.589C85.8906 24.589 86.2118 24.522 86.5185 24.3887L86.4209 24.164L86.3232 23.9393C86.0779 24.046 85.8231 24.099 85.5569 24.099V24.344ZM86.4209 24.164L86.5151 24.3902C86.8243 24.2613 87.0941 24.0979 87.321 23.8977L87.1589 23.714L86.9968 23.5303C86.8156 23.6901 86.5934 23.8267 86.3266 23.9378L86.4209 24.164ZM87.1589 23.714H87.4039V21.95H87.1589H86.9139V23.714H87.1589ZM91.797 26H91.552V26.245H91.797V26ZM91.797 17.54L91.76 17.2978L91.552 17.3295V17.54H91.797ZM93.921 17.216L94.1629 17.1775L94.1247 16.9371L93.884 16.9738L93.921 17.216ZM94.047 18.008L93.805 18.0465L93.8712 18.4624L94.2 18.1993L94.047 18.008ZM95.289 17.342L95.2115 17.1096V17.1096L95.289 17.342ZM99.195 18.134L98.9994 18.2816L99.0006 18.2832L99.195 18.134ZM99.969 26V26.245H100.214V26H99.969ZM97.611 26H97.366V26.245H97.611V26ZM97.557 20.168L97.3142 20.2011L97.3144 20.2026L97.557 20.168ZM97.341 19.52L97.1308 19.6461L97.1349 19.6525L97.341 19.52ZM96.873 19.124L96.7685 19.3459L96.7797 19.3505L96.873 19.124ZM95.019 19.232L94.9124 19.0113L94.9094 19.0129L95.019 19.232ZM94.155 19.844L93.9817 19.6708L93.91 19.7425V19.844H94.155ZM94.155 26V26.245H94.4V26H94.155ZM91.797 26H92.042V17.54H91.797H91.552V26H91.797ZM91.797 17.54L91.8339 17.7822L93.9579 17.4582L93.921 17.216L93.884 16.9738L91.76 17.2978L91.797 17.54ZM93.921 17.216L93.679 17.2545L93.805 18.0465L94.047 18.008L94.2889 17.9695L94.1629 17.1775L93.921 17.216ZM94.047 18.008L94.2 18.1993C94.5359 17.9306 94.9239 17.7219 95.3664 17.5744L95.289 17.342L95.2115 17.1096C94.718 17.2741 94.278 17.5094 93.8939 17.8167L94.047 18.008ZM95.289 17.342L95.3664 17.5744C95.8108 17.4263 96.2527 17.353 96.693 17.353V17.108V16.863C96.1972 16.863 95.7031 16.9457 95.2115 17.1096L95.289 17.342ZM96.693 17.108V17.353C97.7967 17.353 98.5445 17.6786 98.9994 18.2815L99.195 18.134L99.3905 17.9865C98.8134 17.2214 97.8932 16.863 96.693 16.863V17.108ZM99.195 18.134L99.0006 18.2832C99.4737 18.8993 99.724 19.7528 99.724 20.87H99.969H100.214C100.214 19.6832 99.9482 18.7127 99.3893 17.9848L99.195 18.134ZM99.969 20.87H99.724V26H99.969H100.214V20.87H99.969ZM99.969 26V25.755H97.611V26V26.245H99.969V26ZM97.611 26H97.856V21.05H97.611H97.366V26H97.611ZM97.611 21.05H97.856C97.856 20.7058 97.8376 20.3998 97.7995 20.1334L97.557 20.168L97.3144 20.2026C97.3484 20.4402 97.366 20.7222 97.366 21.05H97.611ZM97.557 20.168L97.7997 20.1349C97.7604 19.8467 97.6797 19.5938 97.547 19.3875L97.341 19.52L97.1349 19.6525C97.2182 19.7822 97.2815 19.9613 97.3142 20.2011L97.557 20.168ZM97.341 19.52L97.551 19.3939C97.4145 19.1664 97.2163 19.0004 96.9662 18.8975L96.873 19.124L96.7797 19.3505C96.9376 19.4156 97.0514 19.5136 97.1309 19.6461L97.341 19.52ZM96.873 19.124L96.9773 18.9023C96.7286 18.7853 96.4189 18.735 96.063 18.735V18.98V19.225C96.3791 19.225 96.6093 19.2707 96.7686 19.3457L96.873 19.124ZM96.063 18.98V18.735C95.6742 18.735 95.29 18.8291 94.9124 19.0114L95.019 19.232L95.1255 19.4526C95.444 19.2989 95.7557 19.225 96.063 19.225V18.98ZM95.019 19.232L94.9094 19.0129C94.5523 19.1914 94.2422 19.4103 93.9817 19.6708L94.155 19.844L94.3282 20.0172C94.5477 19.7977 94.8136 19.6086 95.1285 19.4511L95.019 19.232ZM94.155 19.844H93.91V26H94.155H94.4V19.844H94.155ZM94.155 26V25.755H91.797V26V26.245H94.155V26ZM103.354 23.084L103.57 22.9691L103.448 22.7397L103.227 22.8747L103.354 23.084ZM104.218 24.056L104.076 24.2558L104.081 24.2588L104.218 24.056ZM107.026 23.246L106.802 23.3455L106.806 23.3555L106.812 23.365L107.026 23.246ZM106.72 22.94L106.848 22.7313V22.7313L106.72 22.94ZM106.09 22.67L106.164 22.4365L106.09 22.67ZM105.082 22.418L105.031 22.6577L105.033 22.658L105.082 22.418ZM103.822 22.076L103.733 22.3046L103.742 22.3077L103.822 22.076ZM102.868 21.554L102.713 21.7437L102.718 21.7479L102.868 21.554ZM102.256 20.798L102.035 20.904L102.037 20.9076L102.256 20.798ZM102.292 18.674L102.508 18.7902L102.509 18.7868L102.292 18.674ZM102.994 17.846L103.142 18.0411L103.143 18.0402L102.994 17.846ZM104.128 17.306L104.192 17.5426L104.198 17.5408L104.128 17.306ZM107.944 17.594L107.824 17.8076L107.827 17.8094L107.944 17.594ZM109.276 18.746L109.414 18.9481L109.616 18.8098L109.478 18.6077L109.276 18.746ZM107.62 19.88L107.424 20.027L107.565 20.2147L107.758 20.0821L107.62 19.88ZM106.792 19.16L106.67 19.3727L106.792 19.16ZM104.56 19.106L104.707 19.302L104.709 19.3006L104.56 19.106ZM104.632 20.276L104.742 20.0569L104.632 20.276ZM105.964 20.654L106.013 20.414L106.013 20.4139L105.964 20.654ZM107.368 21.05L107.28 21.279L107.288 21.2818L107.368 21.05ZM108.43 21.59L108.577 21.394L108.43 21.59ZM109.078 22.382L108.855 22.4848L108.861 22.495L109.078 22.382ZM109.024 24.704L109.237 24.8256L109.238 24.8224L109.024 24.704ZM108.232 25.55L108.364 25.7562L108.37 25.7527L108.232 25.55ZM107.044 26.036L107.1 26.2744L107.044 26.036ZM103.066 25.622L102.936 25.83L102.941 25.8328L103.066 25.622ZM101.608 24.146L101.481 23.9367L101.277 24.0606L101.395 24.2676L101.608 24.146ZM103.354 23.084L103.138 23.1989C103.36 23.6183 103.675 23.9708 104.076 24.2558L104.218 24.056L104.36 23.8562C104.017 23.6132 103.756 23.3177 103.57 22.9691L103.354 23.084ZM104.218 24.056L104.081 24.2588C104.505 24.5466 105.05 24.679 105.694 24.679V24.434V24.189C105.114 24.189 104.675 24.0694 104.355 23.8532L104.218 24.056ZM105.694 24.434V24.679C106.184 24.679 106.592 24.6075 106.886 24.4331C107.199 24.2467 107.361 23.954 107.361 23.588H107.116H106.871C106.871 23.786 106.796 23.9163 106.635 24.0119C106.454 24.1195 106.152 24.189 105.694 24.189V24.434ZM107.116 23.588H107.361C107.361 23.4251 107.32 23.2703 107.24 23.127L107.026 23.246L106.812 23.365C106.852 23.4377 106.871 23.5109 106.871 23.588H107.116ZM107.026 23.246L107.25 23.1465C107.173 22.9747 107.025 22.84 106.848 22.7313L106.72 22.94L106.592 23.1487C106.727 23.232 106.782 23.3013 106.802 23.3455L107.026 23.246ZM106.72 22.94L106.848 22.7313C106.669 22.621 106.439 22.5238 106.164 22.4365L106.09 22.67L106.016 22.9035C106.269 22.9842 106.459 23.067 106.592 23.1487L106.72 22.94ZM106.09 22.67L106.164 22.4365C105.889 22.349 105.544 22.263 105.131 22.178L105.082 22.418L105.033 22.658C105.436 22.741 105.763 22.823 106.016 22.9035L106.09 22.67ZM105.082 22.418L105.132 22.1783C104.685 22.084 104.275 21.9726 103.902 21.8443L103.822 22.076L103.742 22.3077C104.137 22.4434 104.567 22.56 105.031 22.6577L105.082 22.418ZM103.822 22.076L103.91 21.8475C103.556 21.7104 103.26 21.5472 103.018 21.3601L102.868 21.554L102.718 21.7479C103.004 21.9688 103.344 22.1536 103.733 22.3045L103.822 22.076ZM102.868 21.554L103.023 21.3644C102.784 21.1689 102.603 20.9437 102.475 20.6884L102.256 20.798L102.037 20.9076C102.197 21.2283 102.424 21.5071 102.713 21.7436L102.868 21.554ZM102.256 20.798L102.477 20.692C102.352 20.4326 102.285 20.1106 102.285 19.718H102.04H101.795C101.795 20.1654 101.872 20.5634 102.035 20.904L102.256 20.798ZM102.04 19.718H102.285C102.285 19.3711 102.36 19.0635 102.508 18.7902L102.292 18.674L102.076 18.5578C101.887 18.9085 101.795 19.2969 101.795 19.718H102.04ZM102.292 18.674L102.509 18.7868C102.66 18.4961 102.87 18.2478 103.142 18.0411L102.994 17.846L102.846 17.6509C102.518 17.9002 102.26 18.2039 102.074 18.5612L102.292 18.674ZM102.994 17.846L103.143 18.0402C103.426 17.8228 103.774 17.6555 104.192 17.5425L104.128 17.306L104.064 17.0695C103.594 17.1965 103.186 17.3892 102.845 17.6518L102.994 17.846ZM104.128 17.306L104.198 17.5408C104.616 17.4166 105.084 17.353 105.604 17.353V17.108V16.863C105.044 16.863 104.528 16.9314 104.058 17.0712L104.128 17.306ZM105.604 17.108V17.353C106.565 17.353 107.298 17.5118 107.824 17.8075L107.944 17.594L108.064 17.3805C107.438 17.0282 106.611 16.863 105.604 16.863V17.108ZM107.944 17.594L107.827 17.8094C108.375 18.1063 108.787 18.4659 109.074 18.8843L109.276 18.746L109.478 18.6077C109.14 18.1141 108.665 17.7057 108.061 17.3786L107.944 17.594ZM109.276 18.746L109.138 18.5439L107.482 19.6779L107.62 19.88L107.758 20.0821L109.414 18.9481L109.276 18.746ZM107.62 19.88L107.816 19.733C107.578 19.4163 107.276 19.1546 106.913 18.9473L106.792 19.16L106.67 19.3727C106.98 19.5494 107.229 19.7677 107.424 20.027L107.62 19.88ZM106.792 19.16L106.913 18.9473C106.534 18.7306 106.095 18.627 105.604 18.627V18.872V19.117C106.025 19.117 106.378 19.2054 106.67 19.3727L106.792 19.16ZM105.604 18.872V18.627C105.1 18.627 104.682 18.704 104.411 18.9114L104.56 19.106L104.709 19.3006C104.846 19.196 105.124 19.117 105.604 19.117V18.872ZM104.56 19.106L104.413 18.91C104.159 19.1003 104.027 19.3649 104.027 19.682H104.272H104.517C104.517 19.5191 104.577 19.3997 104.707 19.302L104.56 19.106ZM104.272 19.682H104.027C104.027 19.8561 104.065 20.0204 104.152 20.1645C104.24 20.309 104.368 20.4178 104.522 20.4951L104.632 20.276L104.742 20.0569C104.656 20.0142 104.604 19.964 104.571 19.9105C104.539 19.8566 104.517 19.7839 104.517 19.682H104.272ZM104.632 20.276L104.522 20.4951C104.795 20.6312 105.268 20.7622 105.915 20.8941L105.964 20.654L106.013 20.4139C105.364 20.2818 104.949 20.1608 104.742 20.0569L104.632 20.276ZM105.964 20.654L105.915 20.894C106.433 20.9999 106.887 21.1286 107.28 21.2788L107.368 21.05L107.455 20.8212C107.032 20.6594 106.551 20.5241 106.013 20.414L105.964 20.654ZM107.368 21.05L107.288 21.2818C107.69 21.4193 108.02 21.5885 108.283 21.786L108.43 21.59L108.577 21.394C108.264 21.1595 107.886 20.9687 107.447 20.8182L107.368 21.05ZM108.43 21.59L108.283 21.786C108.54 21.9788 108.729 22.2113 108.855 22.4847L109.078 22.382L109.3 22.2793C109.139 21.9287 108.896 21.6332 108.577 21.394L108.43 21.59ZM109.078 22.382L108.861 22.495C108.994 22.7518 109.067 23.0767 109.067 23.48H109.312H109.557C109.557 23.0193 109.474 22.6122 109.295 22.269L109.078 22.382ZM109.312 23.48H109.067C109.067 23.914 108.978 24.2798 108.809 24.5856L109.024 24.704L109.238 24.8224C109.454 24.4322 109.557 23.982 109.557 23.48H109.312ZM109.024 24.704L108.811 24.5824C108.639 24.8844 108.401 25.1392 108.094 25.3473L108.232 25.55L108.37 25.7527C108.735 25.5048 109.025 25.1956 109.237 24.8256L109.024 24.704ZM108.232 25.55L108.099 25.3439C107.79 25.5426 107.421 25.6949 106.987 25.7976L107.044 26.036L107.1 26.2744C107.579 26.1611 108.001 25.9894 108.364 25.7561L108.232 25.55ZM107.044 26.036L106.987 25.7976C106.552 25.9008 106.085 25.953 105.586 25.953V26.198V26.443C106.119 26.443 106.624 26.3872 107.1 26.2744L107.044 26.036ZM105.586 26.198V25.953C104.582 25.953 103.79 25.766 103.191 25.4112L103.066 25.622L102.941 25.8328C103.638 26.246 104.526 26.443 105.586 26.443V26.198ZM103.066 25.622L103.195 25.414C102.59 25.0372 102.134 24.5736 101.821 24.0244L101.608 24.146L101.395 24.2676C101.753 24.8944 102.27 25.4148 102.936 25.83L103.066 25.622ZM101.608 24.146L101.735 24.3553L103.481 23.2933L103.354 23.084L103.227 22.8747L101.481 23.9367L101.608 24.146ZM111.492 26H111.247V26.245H111.492V26ZM111.492 19.124H111.737V18.879H111.492V19.124ZM110.286 19.124H110.041V19.369H110.286V19.124ZM110.286 17.324V17.079H110.041V17.324H110.286ZM111.492 17.324V17.569H111.737V17.324H111.492ZM111.726 15.542L111.497 15.4545L111.726 15.542ZM112.356 14.534L112.183 14.3608L112.356 14.534ZM113.31 13.94L113.388 14.1725L113.392 14.1709L113.31 13.94ZM116.01 13.886L115.955 14.125L115.963 14.1265L116.01 13.886ZM117.18 14.264L117.409 14.351L117.489 14.141L117.287 14.0434L117.18 14.264ZM116.496 16.064L116.391 16.2852L116.631 16.3995L116.725 16.151L116.496 16.064ZM114.138 15.992L113.97 15.8136L114.138 15.992ZM113.832 17.324H113.587V17.569H113.832V17.324ZM115.938 17.324L116.18 17.3627L116.225 17.079H115.938V17.324ZM115.65 19.124V19.369H115.859L115.892 19.1627L115.65 19.124ZM113.85 19.124V18.879H113.605V19.124H113.85ZM113.85 26V26.245H114.095V26H113.85ZM111.492 26H111.737V19.124H111.492H111.247V26H111.492ZM111.492 19.124V18.879H110.286V19.124V19.369H111.492V19.124ZM110.286 19.124H110.531V17.324H110.286H110.041V19.124H110.286ZM110.286 17.324V17.569H111.492V17.324V17.079H110.286V17.324ZM111.492 17.324H111.737V17.018H111.492H111.247V17.324H111.492ZM111.492 17.018H111.737C111.737 16.4629 111.812 16.0022 111.955 15.6295L111.726 15.542L111.497 15.4545C111.328 15.8978 111.247 16.4211 111.247 17.018H111.492ZM111.726 15.542L111.955 15.6295C112.101 15.2483 112.293 14.9431 112.529 14.7072L112.356 14.534L112.183 14.3608C111.891 14.6529 111.663 15.0197 111.497 15.4545L111.726 15.542ZM112.356 14.534L112.529 14.7072C112.779 14.4573 113.065 14.28 113.388 14.1724L113.31 13.94L113.233 13.7076C112.835 13.84 112.485 14.0587 112.183 14.3608L112.356 14.534ZM113.31 13.94L113.392 14.1709C113.735 14.0491 114.109 13.987 114.516 13.987V13.742V13.497C114.059 13.497 113.629 13.5669 113.228 13.7091L113.31 13.94ZM114.516 13.742V13.987C115.079 13.987 115.558 14.034 115.955 14.1248L116.01 13.886L116.065 13.6472C115.622 13.546 115.105 13.497 114.516 13.497V13.742ZM116.01 13.886L115.963 14.1265C116.377 14.207 116.747 14.327 117.074 14.4846L117.18 14.264L117.287 14.0434C116.917 13.865 116.507 13.733 116.057 13.6455L116.01 13.886ZM117.18 14.264L116.951 14.177L116.267 15.977L116.496 16.064L116.725 16.151L117.409 14.351L117.18 14.264ZM116.496 16.064L116.601 15.8428C116.064 15.587 115.494 15.459 114.894 15.459V15.704V15.949C115.422 15.949 115.92 16.061 116.391 16.2852L116.496 16.064ZM114.894 15.704V15.459C114.536 15.459 114.223 15.5756 113.97 15.8136L114.138 15.992L114.306 16.1704C114.461 16.0244 114.652 15.949 114.894 15.949V15.704ZM114.138 15.992L113.97 15.8136C113.69 16.0775 113.587 16.5142 113.587 17.036H113.832H114.077C114.077 16.5498 114.178 16.2905 114.306 16.1704L114.138 15.992ZM113.832 17.036H113.587V17.324H113.832H114.077V17.036H113.832ZM113.832 17.324V17.569H115.938V17.324V17.079H113.832V17.324ZM115.938 17.324L115.696 17.2853L115.408 19.0853L115.65 19.124L115.892 19.1627L116.18 17.3627L115.938 17.324ZM115.65 19.124V18.879H113.85V19.124V19.369H115.65V19.124ZM113.85 19.124H113.605V26H113.85H114.095V19.124H113.85ZM113.85 26V25.755H111.492V26V26.245H113.85V26ZM118.752 22.22V21.975H118.481L118.508 22.2444L118.752 22.22ZM118.986 23.156L118.763 23.2574L118.986 23.156ZM119.436 23.804L119.603 23.6249L119.436 23.804ZM120.03 24.182L119.941 24.4103L119.948 24.4132L119.956 24.4156L120.03 24.182ZM121.866 24.074L121.962 24.2993L121.969 24.2962L121.866 24.074ZM122.91 23.084L123.037 22.8747L122.843 22.7564L122.71 22.9416L122.91 23.084ZM124.656 24.146L124.86 24.2819L125.001 24.0694L124.783 23.9367L124.656 24.146ZM122.928 25.748L123.032 25.9696L123.034 25.9687L122.928 25.748ZM117.654 25.1L117.48 25.2733L117.486 25.2786L117.654 25.1ZM116.736 23.678L116.509 23.7698L116.736 23.678ZM116.718 19.718L116.49 19.6262L116.489 19.6304L116.718 19.718ZM117.636 18.296L117.462 18.1228L117.636 18.296ZM118.968 17.414L118.878 17.1862L118.876 17.1869L118.968 17.414ZM123.522 18.386L123.336 18.5457L123.338 18.5484L123.522 18.386ZM124.674 22.22V22.465H124.922L124.919 22.2166L124.674 22.22ZM122.28 20.618V20.863H122.546L122.524 20.5977L122.28 20.618ZM122.082 19.862L121.858 19.9616L121.863 19.9716L122.082 19.862ZM121.182 18.998L121.268 18.7686L121.182 18.998ZM119.454 19.358L119.611 19.5462L119.614 19.5431L119.454 19.358ZM118.806 20.618L118.563 20.5856L118.526 20.863H118.806V20.618ZM118.752 22.22L118.508 22.2444C118.546 22.6247 118.629 22.9638 118.763 23.2574L118.986 23.156L119.209 23.0546C119.102 22.8202 119.029 22.5353 118.995 22.1956L118.752 22.22ZM118.986 23.156L118.763 23.2574C118.894 23.5456 119.061 23.7896 119.269 23.9831L119.436 23.804L119.603 23.6249C119.45 23.4824 119.318 23.2944 119.209 23.0546L118.986 23.156ZM119.436 23.804L119.269 23.9831C119.47 24.171 119.694 24.3144 119.941 24.4103L120.03 24.182L120.118 23.9537C119.933 23.8816 119.762 23.773 119.603 23.6249L119.436 23.804ZM120.03 24.182L119.956 24.4156C120.208 24.4952 120.467 24.535 120.732 24.535V24.29V24.045C120.517 24.045 120.307 24.0128 120.103 23.9484L120.03 24.182ZM120.732 24.29V24.535C121.18 24.535 121.591 24.4581 121.962 24.2992L121.866 24.074L121.769 23.8488C121.468 23.9779 121.123 24.045 120.732 24.045V24.29ZM121.866 24.074L121.969 24.2962C122.361 24.1141 122.739 23.7444 123.109 23.2264L122.91 23.084L122.71 22.9416C122.36 23.4316 122.042 23.7219 121.763 23.8518L121.866 24.074ZM122.91 23.084L122.782 23.2933L124.528 24.3553L124.656 24.146L124.783 23.9367L123.037 22.8747L122.91 23.084ZM124.656 24.146L124.452 24.0101C123.966 24.7391 123.421 25.2387 122.821 25.5273L122.928 25.748L123.034 25.9687C123.731 25.6333 124.338 25.0649 124.86 24.2819L124.656 24.146ZM122.928 25.748L122.823 25.5264C122.227 25.8077 121.508 25.953 120.66 25.953V26.198V26.443C121.563 26.443 122.356 26.2883 123.032 25.9696L122.928 25.748ZM120.66 26.198V25.953C120.11 25.953 119.591 25.8671 119.102 25.6967L119.022 25.928L118.941 26.1593C119.484 26.3489 120.058 26.443 120.66 26.443V26.198ZM119.022 25.928L119.102 25.6967C118.619 25.5279 118.192 25.2698 117.821 24.9214L117.654 25.1L117.486 25.2786C117.907 25.6742 118.393 25.9681 118.941 26.1593L119.022 25.928ZM117.654 25.1L117.827 24.9268C117.469 24.5686 117.18 24.1234 116.963 23.5862L116.736 23.678L116.509 23.7698C116.747 24.3606 117.071 24.8634 117.48 25.2732L117.654 25.1ZM116.736 23.678L116.963 23.5862C116.749 23.0583 116.639 22.419 116.639 21.662H116.394H116.149C116.149 22.465 116.266 23.1697 116.509 23.7698L116.736 23.678ZM116.394 21.662H116.639C116.639 20.9538 116.743 20.3364 116.946 19.8056L116.718 19.718L116.489 19.6304C116.26 20.2276 116.149 20.9062 116.149 21.662H116.394ZM116.718 19.718L116.945 19.8098C117.162 19.2726 117.451 18.8274 117.809 18.4692L117.636 18.296L117.462 18.1228C117.053 18.5326 116.729 19.0354 116.491 19.6262L116.718 19.718ZM117.636 18.296L117.809 18.4692C118.17 18.1085 118.586 17.8328 119.06 17.6411L118.968 17.414L118.876 17.1869C118.341 17.4032 117.87 17.7155 117.462 18.1228L117.636 18.296ZM118.968 17.414L119.058 17.6418C119.544 17.4496 120.059 17.353 120.606 17.353V17.108V16.863C120 16.863 119.423 16.9704 118.878 17.1862L118.968 17.414ZM120.606 17.108V17.353C121.753 17.353 122.654 17.7525 123.336 18.5457L123.522 18.386L123.708 18.2263C122.925 17.3155 121.883 16.863 120.606 16.863V17.108ZM123.522 18.386L123.338 18.5484C124.027 19.3264 124.405 20.5363 124.429 22.2234L124.674 22.22L124.919 22.2166C124.894 20.4717 124.504 19.1256 123.705 18.2236L123.522 18.386ZM124.674 22.22V21.975H118.752V22.22V22.465H124.674V22.22ZM122.28 20.618L122.524 20.5977C122.498 20.2846 122.425 20.0012 122.301 19.7524L122.082 19.862L121.863 19.9716C121.954 20.1548 122.014 20.3754 122.036 20.6383L122.28 20.618ZM122.082 19.862L122.306 19.7625C122.198 19.5195 122.053 19.311 121.87 19.142L121.704 19.322L121.537 19.502C121.666 19.621 121.774 19.7725 121.858 19.9615L122.082 19.862ZM121.704 19.322L121.87 19.142C121.691 18.9773 121.49 18.8521 121.268 18.7686L121.182 18.998L121.096 19.2274C121.257 19.2879 121.404 19.3787 121.537 19.502L121.704 19.322ZM121.182 18.998L121.268 18.7686C121.05 18.687 120.829 18.645 120.606 18.645V18.89V19.135C120.766 19.135 120.929 19.165 121.096 19.2274L121.182 18.998ZM120.606 18.89V18.645C120.129 18.645 119.69 18.8291 119.293 19.1729L119.454 19.358L119.614 19.5431C119.937 19.2629 120.266 19.135 120.606 19.135V18.89ZM119.454 19.358L119.297 19.1698C118.882 19.5154 118.642 19.9953 118.563 20.5856L118.806 20.618L119.049 20.6504C119.114 20.1607 119.305 19.8006 119.611 19.5462L119.454 19.358ZM118.806 20.618V20.863H122.28V20.618V20.373H118.806V20.618ZM126.391 26H126.146V26.245H126.391V26ZM126.391 17.54L126.354 17.2978L126.146 17.3295V17.54H126.391ZM128.515 17.216L128.757 17.1806L128.722 16.9366L128.478 16.9738L128.515 17.216ZM128.641 18.08L128.398 18.1154L128.472 18.6208L128.82 18.2469L128.641 18.08ZM129.613 17.36L129.705 17.5869L129.709 17.5852L129.613 17.36ZM131.305 17.216L131.355 16.9763L131.305 17.216ZM132.007 17.414L132.247 17.4629L132.289 17.2534L132.088 17.1828L132.007 17.414ZM131.593 19.448L131.502 19.6755L131.774 19.7845L131.833 19.4969L131.593 19.448ZM130.909 19.232L130.84 19.467L130.847 19.4694L130.856 19.4712L130.909 19.232ZM129.379 19.376L129.258 19.1627L129.254 19.1651L129.379 19.376ZM128.749 19.916L128.554 19.7672L128.504 19.8331V19.916H128.749ZM128.749 26V26.245H128.994V26H128.749ZM126.391 26H126.636V17.54H126.391H126.146V26H126.391ZM126.391 17.54L126.428 17.7822L128.552 17.4582L128.515 17.216L128.478 16.9738L126.354 17.2978L126.391 17.54ZM128.515 17.216L128.272 17.2514L128.398 18.1154L128.641 18.08L128.883 18.0446L128.757 17.1806L128.515 17.216ZM128.641 18.08L128.82 18.2469C129.128 17.9162 129.424 17.7015 129.705 17.5869L129.613 17.36L129.52 17.1331C129.154 17.2825 128.801 17.5478 128.461 17.9131L128.641 18.08ZM129.613 17.36L129.709 17.5852C130.015 17.4541 130.33 17.389 130.657 17.389V17.144V16.899C130.263 16.899 129.882 16.9779 129.516 17.1348L129.613 17.36ZM130.657 17.144V17.389C130.842 17.389 131.041 17.4108 131.254 17.4557L131.305 17.216L131.355 16.9763C131.113 16.9252 130.88 16.899 130.657 16.899V17.144ZM131.305 17.216L131.254 17.4557C131.471 17.5014 131.695 17.5644 131.926 17.6452L132.007 17.414L132.088 17.1828C131.839 17.0956 131.594 17.0266 131.355 16.9763L131.305 17.216ZM132.007 17.414L131.767 17.3651L131.353 19.3991L131.593 19.448L131.833 19.4969L132.247 17.4629L132.007 17.414ZM131.593 19.448L131.684 19.2205C131.433 19.1204 131.193 19.0441 130.962 18.9928L130.909 19.232L130.856 19.4712C131.057 19.5159 131.272 19.5836 131.502 19.6755L131.593 19.448ZM130.909 19.232L130.978 18.997C130.752 18.9306 130.525 18.897 130.297 18.897V19.142V19.387C130.476 19.387 130.657 19.4134 130.84 19.467L130.909 19.232ZM130.297 19.142V18.897C129.921 18.897 129.573 18.9847 129.258 19.1627L129.379 19.376L129.499 19.5893C129.736 19.4553 130 19.387 130.297 19.387V19.142ZM129.379 19.376L129.254 19.1651C128.968 19.334 128.733 19.5338 128.554 19.7672L128.749 19.916L128.943 20.0648C129.077 19.8902 129.261 19.73 129.503 19.5869L129.379 19.376ZM128.749 19.916H128.504V26H128.749H128.994V19.916H128.749ZM128.749 26V25.755H126.391V26V26.245H128.749V26ZM138.24 26L138.001 26.0544L138.044 26.245H138.24V26ZM135.504 13.994V13.749H135.197L135.265 14.0484L135.504 13.994ZM137.934 13.994L138.174 13.9443L138.133 13.749H137.934V13.994ZM139.41 21.122L139.17 21.1717L139.356 22.071L139.643 21.1984L139.41 21.122ZM141.75 13.994V13.749H141.572L141.517 13.9176L141.75 13.994ZM143.244 13.994L143.477 13.9176L143.421 13.749H143.244V13.994ZM145.584 21.122L145.351 21.1984L145.635 22.0626L145.824 21.1728L145.584 21.122ZM147.096 13.994V13.749H146.897L146.856 13.9432L147.096 13.994ZM149.508 13.994L149.747 14.0488L149.815 13.749H149.508V13.994ZM146.754 26V26.245H146.949L146.993 26.0548L146.754 26ZM145.224 26L144.992 26.0789L145.048 26.245H145.224V26ZM142.488 17.954L142.72 17.8751L142.487 17.1907L142.256 17.8756L142.488 17.954ZM139.77 26V26.245H139.946L140.002 26.0784L139.77 26ZM138.24 26L138.479 25.9456L135.743 13.9396L135.504 13.994L135.265 14.0484L138.001 26.0544L138.24 26ZM135.504 13.994V14.239H137.934V13.994V13.749H135.504V13.994ZM137.934 13.994L137.694 14.0437L139.17 21.1717L139.41 21.122L139.65 21.0723L138.174 13.9443L137.934 13.994ZM139.41 21.122L139.643 21.1984L141.983 14.0704L141.75 13.994L141.517 13.9176L139.177 21.0456L139.41 21.122ZM141.75 13.994V14.239H143.244V13.994V13.749H141.75V13.994ZM143.244 13.994L143.011 14.0704L145.351 21.1984L145.584 21.122L145.817 21.0456L143.477 13.9176L143.244 13.994ZM145.584 21.122L145.824 21.1728L147.336 14.0448L147.096 13.994L146.856 13.9432L145.344 21.0712L145.584 21.122ZM147.096 13.994V14.239H149.508V13.994V13.749H147.096V13.994ZM149.508 13.994L149.269 13.9392L146.515 25.9452L146.754 26L146.993 26.0548L149.747 14.0488L149.508 13.994ZM146.754 26V25.755H145.224V26V26.245H146.754V26ZM145.224 26L145.456 25.9211L142.72 17.8751L142.488 17.954L142.256 18.0329L144.992 26.0789L145.224 26ZM142.488 17.954L142.256 17.8756L139.538 25.9216L139.77 26L140.002 26.0784L142.72 18.0324L142.488 17.954ZM139.77 26V25.755H138.24V26V26.245H139.77V26ZM152.135 25.802L152.027 26.0221L152.029 26.023L152.135 25.802ZM150.767 24.758L150.578 24.9149L150.581 24.9179L150.767 24.758ZM149.957 23.3L149.724 23.376L149.724 23.3775L149.957 23.3ZM149.957 19.97L150.189 20.0475L149.957 19.97ZM150.767 18.53L150.581 18.3701L150.581 18.3706L150.767 18.53ZM152.135 17.504L152.238 17.726L152.24 17.725L152.135 17.504ZM155.969 17.504L155.861 17.7242L155.867 17.7269L155.969 17.504ZM157.337 18.53L157.148 18.6869L157.153 18.6924L157.337 18.53ZM158.165 19.97L158.397 19.8925L158.165 19.97ZM158.165 23.3L158.397 23.3775L158.398 23.376L158.165 23.3ZM157.337 24.758L157.151 24.5981L157.148 24.6012L157.337 24.758ZM155.969 25.802L155.863 25.581L155.861 25.5819L155.969 25.802ZM152.117 22.67L151.879 22.7315L151.882 22.7421L152.117 22.67ZM152.513 23.498L152.312 23.6386L152.317 23.645L152.513 23.498ZM153.161 24.074L153.039 24.287L153.051 24.2931L153.161 24.074ZM154.943 24.074L155.056 24.2911L155.06 24.2891L154.943 24.074ZM155.591 23.498L155.395 23.3509L155.39 23.3575L155.591 23.498ZM155.987 22.67L155.752 22.6004L155.75 22.6063L155.987 22.67ZM155.987 20.6L155.749 20.6615L155.752 20.6696L155.987 20.6ZM155.591 19.772L155.39 19.9127L155.398 19.9238L155.591 19.772ZM154.943 19.214L154.821 19.427L154.833 19.4331L154.943 19.214ZM153.161 19.214L153.274 19.4311L153.278 19.4291L153.161 19.214ZM152.513 19.772L152.317 19.625L152.315 19.6267L152.513 19.772ZM152.117 20.6L151.882 20.5304L151.879 20.5385L152.117 20.6ZM154.061 26.198V25.953C153.358 25.953 152.753 25.8264 152.24 25.581L152.135 25.802L152.029 26.023C152.62 26.3056 153.299 26.443 154.061 26.443V26.198ZM152.135 25.802L152.242 25.5819C151.73 25.3317 151.301 25.0036 150.952 24.5981L150.767 24.758L150.581 24.9179C150.976 25.3764 151.459 25.7443 152.027 26.0221L152.135 25.802ZM150.767 24.758L150.955 24.6012C150.615 24.1929 150.36 23.7339 150.189 23.2225L149.957 23.3L149.724 23.3775C149.914 23.9461 150.199 24.4591 150.578 24.9148L150.767 24.758ZM149.957 23.3L150.19 23.224C150.017 22.6958 149.932 22.1634 149.932 21.626H149.687H149.442C149.442 22.2166 149.536 22.8002 149.724 23.376L149.957 23.3ZM149.687 21.626H149.932C149.932 21.0886 150.017 20.5627 150.189 20.0475L149.957 19.97L149.724 19.8925C149.536 20.4573 149.442 21.0354 149.442 21.626H149.687ZM149.957 19.97L150.189 20.0475C150.359 19.5367 150.614 19.0847 150.953 18.6894L150.767 18.53L150.581 18.3706C150.199 18.8153 149.914 19.3233 149.724 19.8925L149.957 19.97ZM150.767 18.53L150.952 18.6899C151.301 18.2853 151.728 17.964 152.238 17.726L152.135 17.504L152.031 17.282C151.461 17.548 150.977 17.9106 150.581 18.3701L150.767 18.53ZM152.135 17.504L152.24 17.725C152.753 17.4796 153.358 17.353 154.061 17.353V17.108V16.863C153.299 16.863 152.62 17.0004 152.029 17.283L152.135 17.504ZM154.061 17.108V17.353C154.763 17.353 155.361 17.4797 155.861 17.7241L155.969 17.504L156.076 17.2839C155.496 17.0003 154.822 16.863 154.061 16.863V17.108ZM155.969 17.504L155.867 17.7269C156.388 17.9648 156.814 18.2852 157.148 18.6868L157.337 18.53L157.525 18.3732C157.14 17.9108 156.653 17.5471 156.07 17.2811L155.969 17.504ZM157.337 18.53L157.153 18.6924C157.503 19.0873 157.763 19.5383 157.932 20.0475L158.165 19.97L158.397 19.8925C158.207 19.3217 157.914 18.8127 157.52 18.3676L157.337 18.53ZM158.165 19.97L157.932 20.0475C158.104 20.5627 158.19 21.0886 158.19 21.626H158.435H158.68C158.68 21.0354 158.585 20.4573 158.397 19.8925L158.165 19.97ZM158.435 21.626H158.19C158.19 22.1634 158.104 22.6958 157.932 23.224L158.165 23.3L158.398 23.376C158.585 22.8002 158.68 22.2166 158.68 21.626H158.435ZM158.165 23.3L157.932 23.2225C157.762 23.7322 157.502 24.1903 157.151 24.5981L157.337 24.758L157.522 24.9179C157.915 24.4617 158.207 23.9478 158.397 23.3775L158.165 23.3ZM157.337 24.758L157.148 24.6012C156.813 25.0038 156.386 25.3308 155.863 25.581L155.969 25.802L156.074 26.023C156.655 25.7452 157.14 25.3762 157.525 24.9148L157.337 24.758ZM155.969 25.802L155.861 25.5819C155.361 25.8263 154.763 25.953 154.061 25.953V26.198V26.443C154.822 26.443 155.496 26.3057 156.076 26.0221L155.969 25.802ZM151.991 21.626H151.746C151.746 22.0165 151.79 22.3853 151.879 22.7315L152.117 22.67L152.354 22.6085C152.276 22.3067 152.236 21.9795 152.236 21.626H151.991ZM152.117 22.67L151.882 22.7421C151.985 23.0757 152.128 23.3753 152.312 23.6385L152.513 23.498L152.713 23.3575C152.562 23.1407 152.44 22.8883 152.351 22.5979L152.117 22.67ZM152.513 23.498L152.317 23.645C152.516 23.9108 152.757 24.1256 153.039 24.2867L153.161 24.074L153.282 23.8613C153.06 23.7344 152.869 23.5652 152.709 23.351L152.513 23.498ZM153.161 24.074L153.051 24.2931C153.354 24.4444 153.692 24.517 154.061 24.517V24.272V24.027C153.757 24.027 153.496 23.9676 153.27 23.8549L153.161 24.074ZM154.061 24.272V24.517C154.429 24.517 154.763 24.4445 155.056 24.291L154.943 24.074L154.829 23.857C154.618 23.9675 154.364 24.027 154.061 24.027V24.272ZM154.943 24.074L155.06 24.2891C155.356 24.1275 155.601 23.9103 155.791 23.6385L155.591 23.498L155.39 23.3575C155.244 23.5657 155.057 23.7325 154.825 23.8589L154.943 24.074ZM155.591 23.498L155.787 23.645C155.987 23.3782 156.132 23.0735 156.223 22.7337L155.987 22.67L155.75 22.6063C155.674 22.8905 155.555 23.1378 155.395 23.351L155.591 23.498ZM155.987 22.67L156.222 22.7396C156.325 22.3909 156.376 22.0192 156.376 21.626H156.131H155.886C155.886 21.9768 155.84 22.3011 155.752 22.6004L155.987 22.67ZM156.131 21.626H156.376C156.376 21.244 156.325 20.8784 156.222 20.5304L155.987 20.6L155.752 20.6696C155.841 20.9696 155.886 21.288 155.886 21.626H156.131ZM155.987 20.6L156.224 20.5385C156.133 20.1866 155.987 19.8786 155.783 19.6202L155.591 19.772L155.398 19.9238C155.554 20.1214 155.673 20.3654 155.749 20.6615L155.987 20.6ZM155.591 19.772L155.791 19.6315C155.6 19.3579 155.352 19.1449 155.052 18.9949L154.943 19.214L154.833 19.4331C155.061 19.5471 155.245 19.7061 155.39 19.9125L155.591 19.772ZM154.943 19.214L155.064 19.0013C154.77 18.833 154.432 18.753 154.061 18.753V18.998V19.243C154.361 19.243 154.612 19.307 154.821 19.4267L154.943 19.214ZM154.061 18.998V18.753C153.689 18.753 153.347 18.8331 153.043 18.9989L153.161 19.214L153.278 19.4291C153.502 19.3069 153.761 19.243 154.061 19.243V18.998ZM153.161 19.214L153.047 18.997C152.761 19.1468 152.517 19.3575 152.317 19.625L152.513 19.772L152.709 19.919C152.868 19.7065 153.056 19.5452 153.274 19.431L153.161 19.214ZM152.513 19.772L152.315 19.6267C152.128 19.8815 151.984 20.1843 151.882 20.5304L152.117 20.6L152.352 20.6696C152.441 20.3677 152.562 20.1185 152.71 19.9173L152.513 19.772ZM152.117 20.6L151.879 20.5385C151.79 20.884 151.746 21.2468 151.746 21.626H151.991H152.236C152.236 21.2852 152.275 20.964 152.354 20.6615L152.117 20.6ZM160.229 26H159.984V26.245H160.229V26ZM160.229 17.54L160.192 17.2978L159.984 17.3295V17.54H160.229ZM162.353 17.216L162.595 17.1806L162.559 16.9366L162.316 16.9738L162.353 17.216ZM162.479 18.08L162.236 18.1154L162.31 18.6208L162.658 18.2469L162.479 18.08ZM163.451 17.36L163.543 17.5869L163.547 17.5852L163.451 17.36ZM165.143 17.216L165.193 16.9763L165.143 17.216ZM165.845 17.414L166.085 17.4629L166.127 17.2534L165.926 17.1828L165.845 17.414ZM165.431 19.448L165.34 19.6755L165.612 19.7845L165.671 19.4969L165.431 19.448ZM164.747 19.232L164.677 19.467L164.685 19.4694L164.693 19.4712L164.747 19.232ZM163.217 19.376L163.096 19.1627L163.092 19.1651L163.217 19.376ZM162.587 19.916L162.392 19.7672L162.342 19.8331V19.916H162.587ZM162.587 26V26.245H162.832V26H162.587ZM160.229 26H160.474V17.54H160.229H159.984V26H160.229ZM160.229 17.54L160.266 17.7822L162.39 17.4582L162.353 17.216L162.316 16.9738L160.192 17.2978L160.229 17.54ZM162.353 17.216L162.11 17.2514L162.236 18.1154L162.479 18.08L162.721 18.0446L162.595 17.1806L162.353 17.216ZM162.479 18.08L162.658 18.2469C162.966 17.9162 163.262 17.7015 163.543 17.5869L163.451 17.36L163.358 17.1331C162.992 17.2825 162.639 17.5478 162.299 17.9131L162.479 18.08ZM163.451 17.36L163.547 17.5852C163.853 17.4541 164.168 17.389 164.495 17.389V17.144V16.899C164.101 16.899 163.72 16.9779 163.354 17.1348L163.451 17.36ZM164.495 17.144V17.389C164.679 17.389 164.878 17.4108 165.092 17.4557L165.143 17.216L165.193 16.9763C164.951 16.9252 164.718 16.899 164.495 16.899V17.144ZM165.143 17.216L165.092 17.4557C165.309 17.5014 165.533 17.5644 165.764 17.6452L165.845 17.414L165.926 17.1828C165.676 17.0956 165.432 17.0266 165.193 16.9763L165.143 17.216ZM165.845 17.414L165.605 17.3651L165.191 19.3991L165.431 19.448L165.671 19.4969L166.085 17.4629L165.845 17.414ZM165.431 19.448L165.522 19.2205C165.271 19.1204 165.031 19.0441 164.8 18.9928L164.747 19.232L164.693 19.4712C164.895 19.5159 165.11 19.5836 165.34 19.6755L165.431 19.448ZM164.747 19.232L164.816 18.997C164.59 18.9306 164.363 18.897 164.135 18.897V19.142V19.387C164.314 19.387 164.495 19.4134 164.677 19.467L164.747 19.232ZM164.135 19.142V18.897C163.759 18.897 163.411 18.9847 163.096 19.1627L163.217 19.376L163.337 19.5893C163.574 19.4553 163.838 19.387 164.135 19.387V19.142ZM163.217 19.376L163.092 19.1651C162.806 19.334 162.57 19.5338 162.392 19.7672L162.587 19.916L162.781 20.0648C162.915 19.8902 163.099 19.73 163.341 19.5869L163.217 19.376ZM162.587 19.916H162.342V26H162.587H162.832V19.916H162.587ZM162.587 26V25.755H160.229V26V26.245H162.587V26ZM166.908 26H166.663V26.245H166.908V26ZM166.908 14.102L166.871 13.8598L166.663 13.8916V14.102H166.908ZM169.266 13.742H169.511V13.4568L169.229 13.4998L169.266 13.742ZM169.266 19.772H169.021V20.3224L169.43 19.954L169.266 19.772ZM171.984 17.324V17.079H171.89L171.82 17.142L171.984 17.324ZM174.81 17.324L174.974 17.5063L175.45 17.079H174.81V17.324ZM171.822 20.006L171.659 19.8237L171.512 19.9557L171.609 20.1274L171.822 20.006ZM175.242 26V26.245H175.664L175.455 25.8786L175.242 26ZM172.596 26L172.382 26.1188L172.452 26.245H172.596V26ZM170.112 21.518L170.327 21.3992L170.174 21.1244L169.945 21.3391L170.112 21.518ZM169.266 22.31L169.099 22.1311L169.021 22.2038V22.31H169.266ZM169.266 26V26.245H169.511V26H169.266ZM166.908 26H167.153V14.102H166.908H166.663V26H166.908ZM166.908 14.102L166.945 14.3442L169.303 13.9842L169.266 13.742L169.229 13.4998L166.871 13.8598L166.908 14.102ZM169.266 13.742H169.021V19.772H169.266H169.511V13.742H169.266ZM169.266 19.772L169.43 19.954L172.148 17.506L171.984 17.324L171.82 17.142L169.102 19.59L169.266 19.772ZM171.984 17.324V17.569H174.81V17.324V17.079H171.984V17.324ZM174.81 17.324L174.647 17.1417L171.659 19.8237L171.822 20.006L171.986 20.1883L174.974 17.5063L174.81 17.324ZM171.822 20.006L171.609 20.1274L175.029 26.1214L175.242 26L175.455 25.8786L172.035 19.8846L171.822 20.006ZM175.242 26V25.755H172.596V26V26.245H175.242V26ZM172.596 26L172.811 25.8812L170.327 21.3992L170.112 21.518L169.898 21.6368L172.382 26.1188L172.596 26ZM170.112 21.518L169.945 21.3391L169.099 22.1311L169.266 22.31L169.434 22.4889L170.28 21.6969L170.112 21.518ZM169.266 22.31H169.021V26H169.266H169.511V22.31H169.266ZM169.266 26V25.755H166.908V26V26.245H169.266V26ZM176.742 26H176.497V26.245H176.742V26ZM176.742 19.124H176.987V18.879H176.742V19.124ZM175.536 19.124H175.291V19.369H175.536V19.124ZM175.536 17.324V17.079H175.291V17.324H175.536ZM176.76 17.324V17.569H177.005V17.324H176.76ZM177.174 15.416L176.97 15.2801L176.968 15.2841L177.174 15.416ZM178.254 14.408L178.138 14.1925L178.135 14.1938L178.254 14.408ZM179.73 13.904L179.687 13.6628L179.73 13.904ZM182.79 13.832L182.812 13.588L182.79 13.832ZM184.248 14.03H184.493V13.827L184.294 13.7893L184.248 14.03ZM184.248 26V26.245H184.493V26H184.248ZM181.908 26H181.663V26.245H181.908V26ZM181.908 15.83H182.153V15.6225L181.948 15.5883L181.908 15.83ZM181.422 15.794L181.406 16.0385L181.414 16.039H181.422V15.794ZM179.622 16.082L179.737 16.2982L179.743 16.2952L179.622 16.082ZM179.082 17.324H178.837V17.569H179.082V17.324ZM181.026 17.324L181.268 17.3627L181.313 17.079H181.026V17.324ZM180.738 19.124V19.369H180.947L180.98 19.1627L180.738 19.124ZM179.1 19.124V18.879H178.855V19.124H179.1ZM179.1 26V26.245H179.345V26H179.1ZM176.742 26H176.987V19.124H176.742H176.497V26H176.742ZM176.742 19.124V18.879H175.536V19.124V19.369H176.742V19.124ZM175.536 19.124H175.781V17.324H175.536H175.291V19.124H175.536ZM175.536 17.324V17.569H176.76V17.324V17.079H175.536V17.324ZM176.76 17.324H177.005V17.054H176.76H176.515V17.324H176.76ZM176.76 17.054H177.005C177.005 16.4275 177.136 15.9307 177.381 15.5479L177.174 15.416L176.968 15.2841C176.66 15.7653 176.515 16.3605 176.515 17.054H176.76ZM177.174 15.416L177.378 15.5519C177.645 15.1507 177.977 14.8422 178.373 14.6222L178.254 14.408L178.135 14.1938C177.667 14.4538 177.279 14.8173 176.97 15.2801L177.174 15.416ZM178.254 14.408L178.371 14.6235C178.79 14.397 179.256 14.237 179.773 14.1452L179.73 13.904L179.687 13.6628C179.124 13.763 178.606 13.939 178.138 14.1925L178.254 14.408ZM179.73 13.904L179.773 14.1452C180.3 14.0516 180.813 14.005 181.314 14.005V13.76V13.515C180.783 13.515 180.24 13.5644 179.687 13.6628L179.73 13.904ZM181.314 13.76V14.005C181.762 14.005 182.246 14.0286 182.768 14.076L182.79 13.832L182.812 13.588C182.278 13.5394 181.779 13.515 181.314 13.515V13.76ZM182.79 13.832L182.768 14.076C183.289 14.1234 183.767 14.1884 184.202 14.2707L184.248 14.03L184.294 13.7893C183.841 13.7036 183.347 13.6366 182.812 13.588L182.79 13.832ZM184.248 14.03H184.003V26H184.248H184.493V14.03H184.248ZM184.248 26V25.755H181.908V26V26.245H184.248V26ZM181.908 26H182.153V15.83H181.908H181.663V26H181.908ZM181.908 15.83L181.948 15.5883C181.788 15.5617 181.613 15.549 181.422 15.549V15.794V16.039C181.592 16.039 181.74 16.0503 181.868 16.0717L181.908 15.83ZM181.422 15.794L181.438 15.5495C181.255 15.5373 181.093 15.531 180.954 15.531V15.776V16.021C181.079 16.021 181.229 16.0267 181.406 16.0385L181.422 15.794ZM180.954 15.776V15.531C180.395 15.531 179.907 15.639 179.501 15.8688L179.622 16.082L179.743 16.2952C180.057 16.117 180.457 16.021 180.954 16.021V15.776ZM179.622 16.082L179.507 15.8658C179.049 16.11 178.837 16.5478 178.837 17.108H179.082H179.327C179.327 16.6842 179.475 16.438 179.737 16.2982L179.622 16.082ZM179.082 17.108H178.837V17.324H179.082H179.327V17.108H179.082ZM179.082 17.324V17.569H181.026V17.324V17.079H179.082V17.324ZM181.026 17.324L180.784 17.2853L180.496 19.0853L180.738 19.124L180.98 19.1627L181.268 17.3627L181.026 17.324ZM180.738 19.124V18.879H179.1V19.124V19.369H180.738V19.124ZM179.1 19.124H178.855V26H179.1H179.345V19.124H179.1ZM179.1 26V25.755H176.742V26V26.245H179.1V26ZM188.504 25.802L188.396 26.0221L188.398 26.023L188.504 25.802ZM187.136 24.758L186.948 24.9149L186.95 24.9179L187.136 24.758ZM186.326 23.3L186.093 23.376L186.093 23.3775L186.326 23.3ZM186.326 19.97L186.558 20.0475L186.326 19.97ZM187.136 18.53L186.95 18.3701L186.95 18.3706L187.136 18.53ZM188.504 17.504L188.607 17.726L188.609 17.725L188.504 17.504ZM192.338 17.504L192.23 17.7242L192.236 17.7269L192.338 17.504ZM193.706 18.53L193.517 18.6869L193.522 18.6924L193.706 18.53ZM194.534 19.97L194.766 19.8925L194.534 19.97ZM194.534 23.3L194.766 23.3775L194.767 23.376L194.534 23.3ZM193.706 24.758L193.52 24.5981L193.518 24.6012L193.706 24.758ZM192.338 25.802L192.232 25.581L192.23 25.5819L192.338 25.802ZM188.486 22.67L188.248 22.7315L188.252 22.7421L188.486 22.67ZM188.882 23.498L188.681 23.6386L188.686 23.645L188.882 23.498ZM189.53 24.074L189.408 24.287L189.42 24.2931L189.53 24.074ZM191.312 24.074L191.425 24.2911L191.429 24.2891L191.312 24.074ZM191.96 23.498L191.764 23.3509L191.759 23.3575L191.96 23.498ZM192.356 22.67L192.121 22.6004L192.119 22.6063L192.356 22.67ZM192.356 20.6L192.118 20.6615L192.121 20.6696L192.356 20.6ZM191.96 19.772L191.759 19.9127L191.767 19.9238L191.96 19.772ZM191.312 19.214L191.19 19.427L191.202 19.4331L191.312 19.214ZM189.53 19.214L189.643 19.4311L189.647 19.4291L189.53 19.214ZM188.882 19.772L188.686 19.625L188.685 19.6267L188.882 19.772ZM188.486 20.6L188.251 20.5304L188.249 20.5385L188.486 20.6ZM190.43 26.198V25.953C189.727 25.953 189.123 25.8264 188.609 25.581L188.504 25.802L188.398 26.023C188.989 26.3056 189.668 26.443 190.43 26.443V26.198ZM188.504 25.802L188.611 25.5819C188.1 25.3317 187.671 25.0036 187.321 24.5981L187.136 24.758L186.95 24.9179C187.345 25.3764 187.828 25.7443 188.396 26.0221L188.504 25.802ZM187.136 24.758L187.324 24.6012C186.984 24.1929 186.729 23.7339 186.558 23.2225L186.326 23.3L186.093 23.3775C186.283 23.9461 186.568 24.4591 186.948 24.9148L187.136 24.758ZM186.326 23.3L186.559 23.224C186.386 22.6958 186.301 22.1634 186.301 21.626H186.056H185.811C185.811 22.2166 185.905 22.8002 186.093 23.376L186.326 23.3ZM186.056 21.626H186.301C186.301 21.0886 186.386 20.5627 186.558 20.0475L186.326 19.97L186.093 19.8925C185.905 20.4573 185.811 21.0354 185.811 21.626H186.056ZM186.326 19.97L186.558 20.0475C186.728 19.5367 186.983 19.0847 187.322 18.6894L187.136 18.53L186.95 18.3706C186.569 18.8153 186.283 19.3233 186.093 19.8925L186.326 19.97ZM187.136 18.53L187.321 18.6899C187.67 18.2853 188.097 17.964 188.607 17.726L188.504 17.504L188.4 17.282C187.83 17.548 187.346 17.9106 186.95 18.3701L187.136 18.53ZM188.504 17.504L188.609 17.725C189.123 17.4796 189.727 17.353 190.43 17.353V17.108V16.863C189.668 16.863 188.989 17.0004 188.398 17.283L188.504 17.504ZM190.43 17.108V17.353C191.132 17.353 191.73 17.4797 192.23 17.7241L192.338 17.504L192.445 17.2839C191.865 17.0003 191.191 16.863 190.43 16.863V17.108ZM192.338 17.504L192.236 17.7269C192.757 17.9648 193.183 18.2852 193.518 18.6868L193.706 18.53L193.894 18.3732C193.509 17.9108 193.022 17.5471 192.44 17.2811L192.338 17.504ZM193.706 18.53L193.522 18.6924C193.872 19.0873 194.132 19.5383 194.301 20.0475L194.534 19.97L194.766 19.8925C194.576 19.3217 194.283 18.8127 193.889 18.3676L193.706 18.53ZM194.534 19.97L194.301 20.0475C194.473 20.5627 194.559 21.0886 194.559 21.626H194.804H195.049C195.049 21.0354 194.954 20.4573 194.766 19.8925L194.534 19.97ZM194.804 21.626H194.559C194.559 22.1634 194.473 22.6958 194.301 23.224L194.534 23.3L194.767 23.376C194.954 22.8002 195.049 22.2166 195.049 21.626H194.804ZM194.534 23.3L194.301 23.2225C194.131 23.7322 193.871 24.1903 193.52 24.5981L193.706 24.758L193.891 24.9179C194.284 24.4617 194.576 23.9478 194.766 23.3775L194.534 23.3ZM193.706 24.758L193.518 24.6012C193.182 25.0038 192.755 25.3308 192.232 25.581L192.338 25.802L192.443 26.023C193.024 25.7452 193.509 25.3762 193.894 24.9148L193.706 24.758ZM192.338 25.802L192.23 25.5819C191.73 25.8263 191.132 25.953 190.43 25.953V26.198V26.443C191.191 26.443 191.865 26.3057 192.445 26.0221L192.338 25.802ZM188.36 21.626H188.115C188.115 22.0165 188.159 22.3853 188.249 22.7315L188.486 22.67L188.723 22.6085C188.645 22.3067 188.605 21.9795 188.605 21.626H188.36ZM188.486 22.67L188.252 22.7421C188.354 23.0757 188.497 23.3753 188.681 23.6385L188.882 23.498L189.082 23.3575C188.931 23.1407 188.809 22.8883 188.72 22.5979L188.486 22.67ZM188.882 23.498L188.686 23.645C188.885 23.9108 189.126 24.1256 189.408 24.2867L189.53 24.074L189.651 23.8613C189.429 23.7344 189.238 23.5652 189.078 23.351L188.882 23.498ZM189.53 24.074L189.42 24.2931C189.723 24.4444 190.061 24.517 190.43 24.517V24.272V24.027C190.127 24.027 189.865 23.9676 189.639 23.8549L189.53 24.074ZM190.43 24.272V24.517C190.798 24.517 191.133 24.4445 191.425 24.291L191.312 24.074L191.198 23.857C190.987 23.9675 190.733 24.027 190.43 24.027V24.272ZM191.312 24.074L191.429 24.2891C191.725 24.1275 191.97 23.9103 192.16 23.6385L191.96 23.498L191.759 23.3575C191.613 23.5657 191.426 23.7325 191.194 23.8589L191.312 24.074ZM191.96 23.498L192.156 23.645C192.356 23.3782 192.501 23.0735 192.592 22.7337L192.356 22.67L192.119 22.6063C192.043 22.8905 191.924 23.1378 191.764 23.351L191.96 23.498ZM192.356 22.67L192.591 22.7396C192.694 22.3909 192.745 22.0192 192.745 21.626H192.5H192.255C192.255 21.9768 192.21 22.3011 192.121 22.6004L192.356 22.67ZM192.5 21.626H192.745C192.745 21.244 192.694 20.8784 192.591 20.5304L192.356 20.6L192.121 20.6696C192.21 20.9696 192.255 21.288 192.255 21.626H192.5ZM192.356 20.6L192.593 20.5385C192.502 20.1866 192.356 19.8786 192.152 19.6202L191.96 19.772L191.767 19.9238C191.923 20.1214 192.042 20.3654 192.119 20.6615L192.356 20.6ZM191.96 19.772L192.16 19.6315C191.969 19.3579 191.722 19.1449 191.421 18.9949L191.312 19.214L191.202 19.4331C191.43 19.5471 191.615 19.7061 191.759 19.9125L191.96 19.772ZM191.312 19.214L191.433 19.0013C191.139 18.833 190.802 18.753 190.43 18.753V18.998V19.243C190.73 19.243 190.981 19.307 191.19 19.4267L191.312 19.214ZM190.43 18.998V18.753C190.058 18.753 189.717 18.8331 189.412 18.9989L189.53 19.214L189.647 19.4291C189.871 19.3069 190.13 19.243 190.43 19.243V18.998ZM189.53 19.214L189.416 18.997C189.13 19.1468 188.886 19.3575 188.686 19.625L188.882 19.772L189.078 19.919C189.237 19.7065 189.426 19.5452 189.643 19.431L189.53 19.214ZM188.882 19.772L188.685 19.6267C188.497 19.8815 188.353 20.1843 188.251 20.5304L188.486 20.6L188.721 20.6696C188.81 20.3677 188.931 20.1185 189.079 19.9173L188.882 19.772ZM188.486 20.6L188.249 20.5385C188.159 20.884 188.115 21.2468 188.115 21.626H188.36H188.605C188.605 21.2852 188.645 20.964 188.723 20.6615L188.486 20.6ZM198.172 26L197.941 26.0823L197.999 26.245H198.172V26ZM195.076 17.324V17.079H194.729L194.845 17.4063L195.076 17.324ZM197.524 17.324L197.759 17.2536L197.706 17.079H197.524V17.324ZM199.09 22.544L198.855 22.6144L199.08 23.3624L199.323 22.6203L199.09 22.544ZM200.8 17.324V17.079H200.623L200.567 17.2477L200.8 17.324ZM202.24 17.324L202.473 17.247L202.417 17.079H202.24V17.324ZM203.968 22.544L203.736 22.621L203.98 23.3583L204.203 22.6144L203.968 22.544ZM205.534 17.324V17.079H205.352L205.299 17.2536L205.534 17.324ZM207.982 17.324L208.213 17.4063L208.33 17.079H207.982V17.324ZM204.886 26V26.245H205.059L205.117 26.0823L204.886 26ZM203.176 26L202.943 26.0767L202.999 26.245H203.176V26ZM201.52 20.978L201.753 20.9013L201.519 20.1918L201.287 20.902L201.52 20.978ZM199.882 26V26.245H200.06L200.115 26.076L199.882 26ZM198.172 26L198.403 25.9177L195.307 17.2417L195.076 17.324L194.845 17.4063L197.941 26.0823L198.172 26ZM195.076 17.324V17.569H197.524V17.324V17.079H195.076V17.324ZM197.524 17.324L197.29 17.3944L198.855 22.6144L199.09 22.544L199.325 22.4736L197.759 17.2536L197.524 17.324ZM199.09 22.544L199.323 22.6203L201.033 17.4003L200.8 17.324L200.567 17.2477L198.857 22.4677L199.09 22.544ZM200.8 17.324V17.569H202.24V17.324V17.079H200.8V17.324ZM202.24 17.324L202.008 17.401L203.736 22.621L203.968 22.544L204.201 22.467L202.473 17.247L202.24 17.324ZM203.968 22.544L204.203 22.6144L205.769 17.3944L205.534 17.324L205.299 17.2536L203.734 22.4736L203.968 22.544ZM205.534 17.324V17.569H207.982V17.324V17.079H205.534V17.324ZM207.982 17.324L207.751 17.2417L204.655 25.9177L204.886 26L205.117 26.0823L208.213 17.4063L207.982 17.324ZM204.886 26V25.755H203.176V26V26.245H204.886V26ZM203.176 26L203.409 25.9233L201.753 20.9013L201.52 20.978L201.287 21.0547L202.943 26.0767L203.176 26ZM201.52 20.978L201.287 20.902L199.649 25.924L199.882 26L200.115 26.076L201.753 21.054L201.52 20.978ZM199.882 26V25.755H198.172V26V26.245H199.882V26Z" fill="#F3F3F3" mask="url(#path-5-outside-1_1_17211)"/>
<path d="M1333.84 18.5L1327 11.2167L1329.08 9L1338 18.5L1329.08 28L1327 25.7833L1333.84 18.5Z" fill="#1D1B20"/>
</svg>
